<?xml version="1.0" standalone="no"?>
<!DOCTYPE svg PUBLIC "-//W3C//DTD SVG 20010904//EN"
 "http://www.w3.org/TR/2001/REC-SVG-20010904/DTD/svg10.dtd">
<svg version="1.0" xmlns="http://www.w3.org/2000/svg"
 width="1280.000000pt" height="720.000000pt" viewBox="0 0 1280.000000 720.000000"
 preserveAspectRatio="xMidYMid meet">

<g transform="translate(0.000000,720.000000) scale(0.100000,-0.100000)"
fill="#000000" stroke="none">
<path d="M0 5590 l0 -1610 29 0 c16 0 32 -6 34 -12 4 -10 8 -9 16 2 5 8 13 11
17 8 3 -4 -17 -29 -45 -57 l-51 -50 0 -1935 0 -1936 6400 0 6400 0 0 3600 0
3600 -6400 0 -6400 0 0 -1610z m8505 -965 l35 -34 0 -966 c0 -944 0 -965 -19
-965 -11 0 -21 -6 -24 -12 -2 -8 -8 -9 -13 -4 -5 5 -4 11 4 13 9 4 12 205 12
959 l0 955 -25 24 c-24 25 -26 25 -205 25 -179 0 -181 0 -205 -25 l-25 -24 0
-1061 0 -1061 25 -24 c23 -24 28 -25 170 -25 138 0 145 -1 145 -20 0 -19 -7
-20 -155 -20 l-156 0 -34 35 -35 34 0 1081 0 1081 33 34 32 34 203 0 203 1 34
-35z m-110 -130 c34 -33 36 -118 3 -146 l-21 -19 21 -19 c20 -17 22 -28 22
-125 l0 -106 -150 0 -150 0 0 220 0 220 125 0 c120 0 127 -1 150 -25z m285
-65 c0 -5 -4 -10 -10 -10 -5 0 -10 5 -10 10 0 6 5 10 10 10 6 0 10 -4 10 -10z
m0 -49 c0 -11 6 -21 13 -24 6 -2 9 -8 5 -12 -9 -10 -38 19 -38 39 0 9 5 16 10
16 6 0 10 -9 10 -19z m40 -271 c0 -5 -9 -10 -20 -10 -13 0 -20 -7 -20 -20 0
-11 -4 -20 -10 -20 -14 0 -12 28 3 45 14 16 47 20 47 5z m-325 -115 c25 -24
25 -27 25 -195 0 -168 0 -171 -25 -195 -23 -24 -30 -25 -150 -25 l-125 0 0
220 0 220 125 0 c120 0 127 -1 150 -25z m-5335 -265 l0 -30 -60 0 -60 0 0 30
0 30 60 0 60 0 0 -30z m106 16 c16 -17 19 -46 4 -46 -5 0 -10 9 -10 20 0 11
-4 20 -10 20 -5 0 -10 -9 -10 -20 0 -16 -7 -20 -30 -20 -27 0 -30 3 -30 30 0
28 3 30 36 30 19 0 42 -6 50 -14z m6554 -46 l0 -40 -40 0 -40 0 0 -100 0 -100
100 0 100 0 0 100 0 100 -40 0 -40 0 0 40 0 40 76 0 c78 0 104 -11 104 -44 0
-9 5 -16 10 -16 6 0 10 -9 10 -20 0 -11 5 -20 10 -20 6 0 10 -30 10 -70 0 -40
-4 -70 -10 -70 -5 0 -10 -9 -10 -20 0 -11 -4 -20 -10 -20 -5 0 -10 -7 -10 -15
0 -20 -65 -85 -85 -85 -8 0 -15 -4 -15 -10 0 -5 -9 -10 -20 -10 -11 0 -20 -4
-20 -10 0 -6 -30 -10 -70 -10 -40 0 -70 4 -70 10 0 6 -9 10 -20 10 -11 0 -20
5 -20 10 0 6 -7 10 -15 10 -20 0 -85 65 -85 85 0 8 -4 15 -10 15 -5 0 -10 9
-10 20 0 11 -4 20 -10 20 -6 0 -10 30 -10 70 0 40 4 70 10 70 6 0 10 9 10 20
0 11 5 20 10 20 6 0 10 7 10 15 0 35 23 44 113 45 l87 0 0 -40z m1160 0 l0
-40 -40 0 -40 0 0 -100 0 -100 100 0 100 0 0 100 0 100 -40 0 -40 0 0 40 0 40
260 0 260 0 0 -110 0 -110 -30 0 -30 0 0 60 0 60 -110 0 -110 0 0 -60 0 -60
-40 0 -40 0 0 -430 0 -430 -60 0 c-53 0 -60 2 -60 20 0 11 5 20 10 20 15 0 12
97 -2 104 -10 5 -10 7 0 12 19 9 14 24 -8 24 -11 0 -20 5 -20 10 0 6 5 10 10
10 6 0 10 33 10 80 0 47 -4 80 -10 80 -5 0 -10 14 -10 30 0 17 -4 30 -10 30
-5 0 -10 12 -10 26 0 23 -20 54 -34 54 -3 0 -6 -9 -6 -20 0 -11 -4 -20 -10
-20 -5 0 -10 -13 -10 -30 0 -16 -4 -30 -10 -30 -5 0 -10 -9 -10 -20 0 -11 -4
-20 -10 -20 -5 0 -10 9 -10 20 0 11 -4 20 -10 20 -6 0 -10 -36 -10 -88 0 -76
3 -89 20 -102 28 -20 25 -30 -10 -30 -30 0 -40 -14 -17 -24 10 -5 10 -7 0 -12
-15 -7 -18 -104 -3 -104 6 0 10 -9 10 -20 0 -19 -7 -20 -200 -20 -127 0 -200
4 -200 10 0 6 5 10 10 10 6 0 10 9 10 20 0 11 -4 20 -10 20 -5 0 -10 9 -10 20
0 11 -4 20 -10 20 -5 0 -10 7 -10 16 0 9 -10 26 -22 37 -16 13 -19 21 -10 24
6 3 12 13 12 24 0 10 5 19 10 19 6 0 10 9 10 20 0 11 5 20 10 20 6 0 10 9 10
20 0 11 5 20 10 20 18 0 10 31 -15 55 -13 14 -31 25 -40 25 -13 0 -15 41 -15
350 l0 350 270 0 270 0 0 -40z m-7880 -110 c0 -5 -4 -10 -10 -10 -5 0 -10 -9
-10 -20 0 -13 -7 -20 -20 -20 -16 0 -20 7 -20 30 0 27 3 30 30 30 17 0 30 -4
30 -10z m80 -20 c0 -28 -2 -30 -40 -30 -29 0 -40 4 -40 15 0 25 23 44 53 45
23 0 27 -4 27 -30z m100 0 c0 -28 -2 -30 -40 -30 -38 0 -40 2 -40 30 0 28 2
30 40 30 38 0 40 -2 40 -30z m-200 -146 c0 -15 -23 -44 -34 -44 -3 0 -6 14 -6
30 0 23 4 30 20 30 12 0 20 -7 20 -16z m46 2 c21 -21 17 -46 -6 -46 -16 0 -20
7 -20 30 0 34 5 37 26 16z m54 -16 c0 -16 -4 -30 -10 -30 -5 0 -10 14 -10 30
0 17 5 30 10 30 6 0 10 -13 10 -30z m100 0 c0 -28 -2 -30 -40 -30 -38 0 -40 2
-40 30 0 28 2 30 40 30 38 0 40 -2 40 -30z m5205 -5 l35 -34 0 -151 0 -151
-35 -34 c-33 -34 -36 -35 -115 -35 -79 0 -82 1 -115 35 l-35 34 0 151 0 151
33 34 c31 33 34 34 115 34 81 1 83 0 117 -34z m-5325 -105 c0 -17 -7 -20 -50
-20 -27 0 -50 -4 -50 -10 0 -5 -4 -10 -10 -10 -5 0 -10 14 -10 30 l0 30 60 0
c53 0 60 -2 60 -20z m40 0 c0 -11 -4 -20 -10 -20 -5 0 -10 9 -10 20 0 11 5 20
10 20 6 0 10 -9 10 -20z m80 0 c0 -16 -7 -20 -30 -20 -23 0 -30 4 -30 20 0 16
7 20 30 20 23 0 30 -4 30 -20z m5920 -46 c0 -3 -7 -12 -15 -21 -20 -19 -32
-10 -14 11 14 15 29 21 29 10z m-20 -154 c0 -22 -4 -40 -10 -40 -5 0 -10 18
-10 40 0 22 5 40 10 40 6 0 10 -18 10 -40z m1040 -10 c0 -5 -4 -10 -10 -10 -5
0 -10 5 -10 10 0 6 5 10 10 10 6 0 10 -4 10 -10z m40 -90 c0 -11 -4 -20 -10
-20 -5 0 -10 9 -10 20 0 11 5 20 10 20 6 0 10 -9 10 -20z m-1140 -10 c0 -5 -4
-10 -10 -10 -5 0 -10 5 -10 10 0 6 5 10 10 10 6 0 10 -4 10 -10z m1187 -45 c8
-9 13 -19 10 -22 -6 -5 -37 21 -37 31 0 10 11 6 27 -9z m-1787 -50 c0 -44 -3
-49 -80 -125 l-80 -79 0 -96 0 -95 -30 0 -30 0 0 115 0 116 70 69 c39 38 70
72 70 75 0 3 -49 5 -110 5 l-110 0 0 30 0 30 150 0 150 0 0 -45z m1867 10 c8
-9 12 -19 8 -23 -4 -4 -10 -1 -12 6 -3 6 -13 12 -24 12 -10 0 -19 5 -19 10 0
15 30 12 47 -5z m-1307 -35 c0 -5 -4 -10 -10 -10 -5 0 -10 5 -10 10 0 6 5 10
10 10 6 0 10 -4 10 -10z m760 -60 c0 -5 -13 -10 -30 -10 -16 0 -30 5 -30 10 0
6 14 10 30 10 17 0 30 -4 30 -10z m-840 -20 c0 -5 -4 -10 -10 -10 -5 0 -10 5
-10 10 0 6 5 10 10 10 6 0 10 -4 10 -10z m-20 -35 c0 -11 -51 -57 -57 -52 -3
3 6 17 18 31 23 24 39 32 39 21z m820 -54 c0 -11 6 -21 13 -24 6 -2 9 -8 5
-12 -9 -10 -38 19 -38 39 0 9 5 16 10 16 6 0 10 -9 10 -19z m-940 -31 c0 -5
-4 -10 -10 -10 -5 0 -10 5 -10 10 0 6 5 10 10 10 6 0 10 -4 10 -10z m-300 -20
c0 -5 -13 -10 -30 -10 -23 0 -30 -4 -30 -20 0 -11 -4 -20 -10 -20 -5 0 -10 14
-10 30 0 28 2 30 40 30 22 0 40 -4 40 -10z m3400 0 c0 -6 -117 -10 -330 -10
l-330 0 0 -90 c0 -53 -4 -90 -10 -90 -6 0 -10 40 -10 100 l0 100 340 0 c220 0
340 -4 340 -10z m-3460 -80 c0 -5 -4 -10 -10 -10 -5 0 -10 5 -10 10 0 6 5 10
10 10 6 0 10 -4 10 -10z m-6995 -125 c19 -19 35 -37 35 -40 0 -3 -124 -5 -275
-5 l-276 0 -34 35 c-19 19 -35 37 -35 40 0 3 124 5 275 5 l276 0 34 -35z
m2840 0 c19 -19 35 -37 35 -40 0 -3 -124 -5 -275 -5 l-276 0 -34 35 c-19 19
-35 37 -35 40 0 3 124 5 275 5 l276 0 34 -35z m3200 -440 c19 -19 35 -37 35
-40 0 -3 -124 -5 -275 -5 l-276 0 -34 35 c-19 19 -35 37 -35 40 0 3 124 5 275
5 l276 0 34 -35z m-3485 -55 c0 -5 -18 -10 -40 -10 -22 0 -40 5 -40 10 0 6 18
10 40 10 22 0 40 -4 40 -10z m80 0 c0 -5 -4 -10 -10 -10 -5 0 -10 5 -10 10 0
6 5 10 10 10 6 0 10 -4 10 -10z"/>
<path d="M8180 4400 l0 -60 76 0 c86 0 104 11 104 60 0 49 -18 60 -104 60
l-76 0 0 -60z"/>
<path d="M8180 4210 l0 -70 90 0 90 0 0 56 c0 75 -11 84 -104 84 l-76 0 0 -70z"/>
<path d="M8180 3800 l0 -160 76 0 c52 0 80 4 90 14 11 11 14 45 14 146 0 101
-3 135 -14 146 -10 10 -38 14 -90 14 l-76 0 0 -160z"/>
<path d="M8203 3355 c-21 -22 -23 -34 -23 -135 0 -104 1 -112 25 -135 18 -19
35 -25 65 -25 30 0 47 6 65 25 24 23 25 31 25 135 0 104 -1 112 -25 135 -33
34 -100 34 -132 0z"/>
<path d="M21 3934 c-12 -14 -21 -28 -18 -31 6 -5 57 41 57 52 0 11 -16 3 -39
-21z"/>
</g>
</svg>
