<?xml version="1.0" standalone="no"?>
<!DOCTYPE svg PUBLIC "-//W3C//DTD SVG 20010904//EN"
 "http://www.w3.org/TR/2001/REC-SVG-20010904/DTD/svg10.dtd">
<svg version="1.0" xmlns="http://www.w3.org/2000/svg"
 width="342.000000pt" height="729.000000pt" viewBox="0 0 342.000000 729.000000"
 preserveAspectRatio="xMidYMid meet">

<g transform="translate(0.000000,729.000000) scale(0.100000,-0.100000)"
fill="#000000" stroke="none">
<path d="M412 7215 c-108 -14 -203 -57 -256 -115 -37 -41 -83 -129 -97 -187
-31 -123 -48 -1242 -55 -3741 -4 -1201 -2 -1877 4 -1885 5 -7 12 -143 16 -307
7 -295 19 -502 36 -614 19 -119 91 -219 196 -271 32 -17 63 -36 67 -43 6 -9
19 -11 40 -7 20 4 27 3 19 -3 -41 -28 2519 -27 2682 2 108 19 235 120 291 231
l30 60 7 1735 c8 2082 8 2292 1 2304 -3 5 -7 574 -8 1265 l-2 1256 -33 78
c-38 90 -101 163 -170 197 -106 54 -59 52 -1415 54 -929 2 -1284 0 -1353 -9z
m755 -11 c-3 -3 -12 -4 -19 -1 -8 3 -5 6 6 6 11 1 17 -2 13 -5z m465 -1 c-73
-2 -190 -2 -260 0 -70 1 -10 3 133 3 143 0 200 -2 127 -3z m1256 0 c-26 -2
-71 -2 -100 0 -29 2 -8 3 47 3 55 0 79 -1 53 -3z m-2502 -52 c-3 -5 -30 -22
-59 -39 -92 -52 -153 -132 -193 -252 -16 -50 -19 -110 -24 -620 l-6 -565 -2
585 c-2 613 -1 635 43 720 28 56 60 94 103 124 57 39 153 72 138 47z m-319
-383 c-2 -18 -4 -6 -4 27 0 33 2 48 4 33 2 -15 2 -42 0 -60z m3034 16 c66 -31
116 -79 147 -143 l27 -56 3 -3002 3 -3003 -1560 0 -1561 0 2 3003 3 3002 26
55 c41 86 104 137 196 159 22 5 606 8 1353 8 1314 -2 1315 -2 1361 -23z
m-3034 -3236 c-1 -585 -2 -107 -2 1062 0 1169 1 1647 2 1063 2 -585 2 -1541 0
-2125z m0 -2630 c-1 -271 -2 -52 -2 487 0 539 1 761 2 493 2 -267 2 -708 0
-980z m2508 -518 l0 -55 -50 0 -50 0 -3 44 c-5 66 1 73 55 69 l48 -3 0 -55z
m-1625 -6 l0 -55 -50 28 c-27 15 -50 30 -50 33 0 7 72 48 88 49 8 1 12 -16 12
-55z m802 39 c22 -20 23 -41 1 -65 -33 -37 -83 -17 -83 34 0 44 48 62 82 31z"/>
<path d="M1590 3535 c-17 -20 -12 -23 25 -14 20 4 23 7 10 8 -17 1 -18 3 -5
11 13 8 13 10 -1 10 -9 0 -22 -7 -29 -15z"/>
<path d="M1736 3516 c2 -16 4 -33 4 -38 0 -5 4 -7 8 -4 4 2 6 -12 4 -32 -6
-48 4 -39 16 15 8 36 7 42 -8 46 -10 3 -20 13 -23 23 -2 11 -3 6 -1 -10z"/>
<path d="M1630 3465 c0 -27 2 -46 5 -44 7 8 9 78 2 85 -4 4 -7 -14 -7 -41z"/>
<path d="M1595 3461 c-3 -5 -1 -12 5 -16 5 -3 10 1 10 9 0 18 -6 21 -15 7z"/>
<path d="M1660 3429 c7 -22 4 -29 -16 -39 -13 -7 -21 -17 -17 -23 3 -5 0 -12
-6 -16 -8 -6 -9 -15 -2 -34 7 -17 7 -27 1 -27 -6 0 -10 6 -10 14 0 17 -39 66
-40 50 0 -6 10 -26 23 -45 26 -40 49 -92 45 -105 -1 -5 8 -27 21 -49 12 -22
19 -31 15 -20 -18 48 -9 138 9 93 4 -8 6 -7 6 4 1 9 -7 19 -16 21 -14 4 -14 5
3 6 12 0 27 8 34 16 11 13 10 14 -4 9 -9 -3 -23 -1 -31 6 -13 11 -14 10 -9 -4
3 -9 1 -16 -5 -16 -6 0 -11 16 -11 37 0 34 1 35 18 20 11 -10 23 -13 31 -8 10
7 9 18 -8 57 -20 43 -20 50 -6 60 21 15 19 19 -9 19 -20 0 -22 -3 -16 -26z"/>
<path d="M1820 3365 c-10 -19 -10 -30 -2 -47 l11 -23 0 23 c1 13 6 32 11 42 6
10 6 21 2 24 -5 3 -15 -6 -22 -19z"/>
<path d="M1585 3370 c4 -6 11 -8 16 -5 14 9 11 15 -7 15 -8 0 -12 -5 -9 -10z"/>
<path d="M1882 3280 c0 -14 2 -19 5 -12 2 6 2 18 0 25 -3 6 -5 1 -5 -13z"/>
<path d="M1876 3213 c-4 -13 -13 -29 -19 -36 -7 -7 -17 -22 -23 -32 -9 -16
-26 -21 -80 -26 l-69 -5 88 -2 c55 -1 86 2 82 8 -3 5 4 28 15 50 12 23 19 47
17 53 -2 7 -7 2 -11 -10z"/>
</g>
</svg>
