<?xml version="1.0" standalone="no"?>
<!DOCTYPE svg PUBLIC "-//W3C//DTD SVG 20010904//EN"
 "http://www.w3.org/TR/2001/REC-SVG-20010904/DTD/svg10.dtd">
<svg version="1.0" xmlns="http://www.w3.org/2000/svg"
 width="1080.000000pt" height="2400.000000pt" viewBox="0 0 1080.000000 2400.000000"
 preserveAspectRatio="xMidYMid meet">

<g transform="translate(0.000000,2400.000000) scale(0.100000,-0.100000)"
fill="#000000" stroke="none">
<path d="M820 20267 c-50 -16 -104 -75 -120 -132 -15 -55 -4 -117 31 -167 50
-70 177 -95 252 -50 34 22 37 22 37 5 0 -10 34 -52 75 -93 l75 -74 22 22 22
22 -74 75 c-41 41 -82 75 -92 75 -16 0 -16 4 5 43 82 155 -64 328 -233 274z
m127 -64 c69 -32 94 -123 53 -190 -53 -88 -190 -82 -233 10 -22 45 -21 84 1
126 34 64 110 87 179 54z"/>
<path d="M3150 20020 l0 -210 25 0 c25 0 25 1 25 89 0 49 4 101 10 116 13 35
55 50 86 30 23 -15 24 -21 24 -125 l0 -110 31 0 31 0 -4 126 c-3 118 -4 127
-27 145 -28 23 -89 25 -117 4 -10 -8 -22 -15 -26 -15 -5 0 -8 36 -8 80 0 79 0
80 -25 80 l-25 0 0 -210z"/>
<path d="M1784 20196 c-68 -30 -85 -106 -36 -155 15 -15 54 -38 87 -50 33 -12
68 -30 78 -38 21 -20 22 -56 1 -77 -37 -38 -144 -12 -144 34 0 16 -7 20 -30
20 -38 0 -40 -26 -5 -69 51 -60 170 -69 225 -16 24 23 30 37 30 70 0 53 -33
86 -119 120 -76 30 -91 41 -91 70 0 32 33 57 75 57 37 0 75 -24 75 -49 0 -8
12 -13 30 -13 34 0 36 8 14 51 -27 53 -120 75 -190 45z"/>
<path d="M2093 20066 c-35 -32 -37 -38 -41 -104 -4 -68 -3 -71 30 -107 43 -47
111 -59 164 -30 58 31 40 65 -20 40 -57 -24 -103 -3 -120 53 -7 22 -6 22 88
22 l96 0 0 46 c0 39 -5 51 -34 80 -29 29 -41 34 -80 34 -39 0 -52 -6 -83 -34z
m122 -31 c43 -42 34 -55 -40 -55 -58 0 -65 2 -65 19 0 21 44 61 67 61 8 0 25
-11 38 -25z"/>
<path d="M2399 20086 c-14 -8 -30 -26 -37 -40 -11 -25 -10 -26 16 -26 15 0 35
9 45 20 31 36 97 16 97 -29 0 -15 -11 -20 -52 -25 -90 -12 -118 -35 -118 -97
0 -65 90 -104 148 -63 20 14 23 14 28 0 3 -9 18 -16 33 -16 l26 0 -5 120 c-4
106 -7 122 -27 141 -28 28 -116 36 -154 15z m121 -164 c0 -59 -61 -91 -99 -53
-26 26 -26 36 -1 61 13 13 33 20 60 20 37 0 40 -2 40 -28z"/>
<path d="M2660 19955 l0 -145 30 0 30 0 0 104 c0 113 4 121 58 132 25 5 32 12
32 30 0 28 -33 33 -67 9 -19 -13 -22 -13 -27 0 -3 8 -17 15 -31 15 l-25 0 0
-145z"/>
<path d="M2899 20077 c-106 -71 -56 -267 68 -267 57 0 113 40 113 79 0 19 -41
12 -59 -11 -21 -26 -74 -29 -98 -5 -20 20 -28 103 -14 140 20 51 100 56 116 8
8 -25 55 -30 55 -5 0 71 -110 109 -181 61z"/>
<path d="M539 18238 c-21 -37 -23 -231 -4 -425 17 -181 25 -213 50 -213 20 0
24 9 35 91 12 84 40 179 52 179 4 0 8 -6 8 -12 0 -43 23 -195 31 -203 35 -37
63 127 39 238 -13 65 -38 97 -74 97 -27 0 -65 -41 -68 -74 -1 -11 -5 60 -8
159 -5 175 -6 180 -27 183 -14 2 -26 -5 -34 -20z"/>
<path d="M5939 18238 c-21 -37 -23 -231 -4 -425 16 -167 25 -213 43 -213 22 1
33 24 42 90 12 84 39 180 52 180 4 0 8 -6 8 -12 0 -43 23 -195 31 -203 35 -37
63 127 39 238 -13 65 -38 97 -74 97 -27 0 -65 -41 -68 -74 -1 -11 -5 60 -8
159 -5 175 -6 180 -27 183 -14 2 -26 -5 -34 -20z"/>
<path d="M1139 18193 c-11 -28 -6 -369 8 -496 6 -60 31 -106 51 -93 16 9 17
568 2 597 -16 28 -49 24 -61 -8z"/>
<path d="M1300 18205 c-20 -24 -9 -516 13 -567 17 -39 40 -50 51 -22 8 20 6
461 -3 539 -5 51 -9 60 -27 63 -11 2 -27 -4 -34 -13z"/>
<path d="M1449 18193 c-11 -28 -6 -369 8 -496 6 -60 31 -106 51 -93 16 9 17
568 2 597 -16 28 -49 24 -61 -8z"/>
<path d="M2270 18205 c-20 -24 -9 -516 13 -567 17 -39 40 -50 51 -22 8 20 6
461 -3 539 -5 51 -9 60 -27 63 -11 2 -27 -4 -34 -13z"/>
<path d="M6244 18096 c-11 -28 1 -51 25 -51 28 0 47 25 38 49 -8 20 -56 21
-63 2z"/>
<path d="M6404 18096 c-11 -28 1 -51 25 -51 28 0 47 25 38 49 -8 20 -56 21
-63 2z"/>
<path d="M6564 18096 c-11 -28 1 -51 25 -51 28 0 47 25 38 49 -8 20 -56 21
-63 2z"/>
<path d="M930 17978 c-95 -64 -126 -273 -50 -340 17 -16 40 -28 53 -28 33 0
84 35 102 69 34 67 5 89 -55 41 -44 -35 -54 -33 -64 16 -6 28 -4 32 21 37 40
8 80 42 103 88 27 52 25 75 -9 110 -35 35 -57 36 -101 7z m62 -74 c-2 -10 -13
-29 -25 -41 -40 -43 -51 -20 -17 35 22 35 47 39 42 6z"/>
<path d="M6259 17953 c-10 -12 -13 -44 -12 -117 2 -119 19 -181 48 -181 19 0
20 8 23 131 1 72 -2 143 -8 158 -11 30 -31 34 -51 9z"/>
<path d="M6419 17953 c-10 -12 -13 -44 -12 -117 2 -119 19 -181 48 -181 19 0
20 8 23 131 1 72 -2 143 -8 158 -11 30 -31 34 -51 9z"/>
<path d="M6579 17953 c-10 -12 -13 -44 -12 -117 2 -119 19 -181 48 -181 19 0
20 8 23 131 1 72 -2 143 -8 158 -11 30 -31 34 -51 9z"/>
<path d="M1652 17932 c-68 -73 -69 -221 -1 -293 76 -81 187 9 196 159 6 101
-27 145 -119 158 -44 6 -50 4 -76 -24z m115 -82 c20 -43 -17 -160 -52 -160
-19 0 -35 46 -35 100 0 80 58 120 87 60z"/>
<path d="M1982 17932 c-68 -73 -69 -221 -1 -293 76 -81 187 9 196 159 6 101
-27 145 -119 158 -44 6 -50 4 -76 -24z m116 -84 c10 -22 10 -37 2 -69 -14 -50
-38 -89 -55 -89 -19 0 -35 46 -35 100 0 82 58 120 88 58z"/>
<path d="M1843 16653 c-7 -2 -18 -31 -24 -64 -11 -54 -14 -60 -43 -67 -17 -5
-32 -16 -34 -25 -3 -13 4 -17 31 -17 l34 0 7 -81 c15 -171 53 -224 116 -164
36 34 57 92 41 108 -6 6 -12 9 -14 6 -1 -2 -15 -23 -30 -46 -15 -24 -31 -43
-36 -43 -11 0 -27 75 -36 168 -6 60 -5 62 17 62 38 0 68 11 68 25 0 15 -22 25
-57 25 -25 0 -26 1 -19 54 6 55 2 67 -21 59z"/>
<path d="M772 16448 c-29 -32 -42 -71 -42 -129 0 -50 23 -89 53 -89 18 0 55
28 67 51 17 31 2 41 -30 18 -30 -23 -50 -19 -50 10 0 11 12 24 30 31 55 23 81
98 41 120 -29 15 -45 12 -69 -12z m58 -27 c0 -16 -38 -56 -46 -49 -11 12 13
58 31 58 8 0 15 -4 15 -9z"/>
<path d="M2082 16448 c-29 -32 -42 -71 -42 -129 0 -50 23 -89 53 -89 18 0 55
28 67 51 17 31 2 41 -30 18 -30 -23 -50 -19 -50 10 0 11 12 24 30 31 55 23 81
98 41 120 -29 15 -45 12 -69 -12z m58 -27 c0 -16 -38 -56 -46 -49 -11 12 13
58 31 58 8 0 15 -4 15 -9z"/>
<path d="M1138 16383 c-2 -43 -7 -78 -13 -78 -5 0 -18 23 -28 50 -28 72 -33
80 -48 80 -8 0 -16 -17 -21 -42 -9 -56 -38 -117 -50 -105 -5 5 -12 41 -15 80
-3 40 -10 72 -15 72 -17 0 -30 -56 -25 -109 11 -107 80 -123 117 -26 l11 29
22 -39 c28 -49 67 -59 90 -23 34 52 29 179 -6 186 -14 3 -17 -9 -19 -75z"/>
<path d="M513 16424 c-9 -23 6 -155 19 -171 14 -17 38 1 38 28 0 25 30 99 40
99 5 0 11 -19 15 -42 8 -58 24 -95 41 -102 20 -8 28 18 15 43 -6 11 -11 32
-11 48 0 46 -19 101 -38 108 -12 5 -26 -4 -49 -30 l-32 -37 -6 36 c-8 38 -21
47 -32 20z"/>
<path d="M1380 16366 c0 -79 13 -130 31 -124 6 2 20 32 32 67 12 35 27 63 32
64 6 0 13 -21 17 -47 7 -48 31 -96 48 -96 15 0 22 20 12 33 -6 7 -14 41 -18
75 -11 103 -55 130 -94 58 -18 -35 -28 -33 -32 6 -2 17 -9 33 -15 36 -10 3
-13 -16 -13 -72z"/>
<path d="M1623 16413 c-11 -17 -18 -46 -18 -78 0 -132 110 -144 145 -16 19 71
-15 120 -82 121 -19 0 -33 -8 -45 -27z m87 -53 c0 -34 -25 -90 -40 -90 -5 0
-14 16 -19 36 -13 49 1 84 34 84 21 0 25 -5 25 -30z"/>
</g>
</svg>
