<?xml version="1.0" standalone="no"?>
<!DOCTYPE svg PUBLIC "-//W3C//DTD SVG 20010904//EN"
 "http://www.w3.org/TR/2001/REC-SVG-20010904/DTD/svg10.dtd">
<svg version="1.0" xmlns="http://www.w3.org/2000/svg"
 width="1080.000000pt" height="2400.000000pt" viewBox="0 0 1080.000000 2400.000000"
 preserveAspectRatio="xMidYMid meet">

<g transform="translate(0.000000,2400.000000) scale(0.100000,-0.100000)"
fill="#000000" stroke="none">
<path d="M1590 19835 l0 -285 45 0 45 0 0 285 0 285 -45 0 -45 0 0 -285z"/>
<path d="M1140 20092 c-47 -38 4 -102 59 -72 21 11 28 45 13 66 -14 22 -49 25
-72 6z"/>
<path d="M620 20050 l0 -40 85 0 85 0 0 -230 0 -230 45 0 45 0 0 230 0 230 85
0 85 0 0 40 0 40 -215 0 -215 0 0 -40z"/>
<path d="M1340 20000 c0 -49 -1 -50 -30 -50 -28 0 -30 -3 -30 -35 0 -32 3 -35
29 -35 l29 0 4 -135 c3 -116 6 -138 24 -162 24 -31 65 -45 112 -37 29 6 32 10
32 40 0 31 -3 34 -30 34 -42 0 -51 30 -48 154 l3 101 33 3 c29 3 32 6 32 38 0
32 -2 34 -35 34 l-35 0 0 50 0 50 -45 0 -45 0 0 -50z"/>
<path d="M1904 19950 c-84 -20 -134 -95 -134 -202 0 -86 29 -143 90 -177 75
-42 182 -30 233 26 16 19 16 20 -7 42 -20 19 -25 20 -35 7 -22 -26 -77 -39
-115 -26 -40 13 -62 35 -71 73 l-7 27 132 0 133 0 -6 60 c-11 97 -48 149 -122
169 -44 12 -47 12 -91 1z m90 -82 c15 -13 29 -38 32 -55 l7 -33 -81 0 c-45 0
-83 4 -86 9 -11 17 16 72 43 86 37 20 56 18 85 -7z"/>
<path d="M1130 19750 l0 -200 45 0 45 0 0 200 0 200 -45 0 -45 0 0 -200z"/>
<path d="M650 18075 l0 -225 35 0 35 0 0 163 c1 189 -11 191 118 -20 83 -137
88 -143 120 -143 l32 0 0 225 0 225 -30 0 -30 0 0 -160 c0 -88 -3 -160 -7
-160 -5 0 -52 72 -106 160 -96 156 -99 160 -133 160 l-34 0 0 -225z"/>
<path d="M1460 18220 c0 -36 -2 -40 -25 -40 -20 0 -25 -5 -25 -25 0 -20 5 -25
24 -25 24 0 24 -1 28 -121 3 -113 5 -122 27 -140 14 -11 39 -19 62 -19 34 0
39 3 39 24 0 18 -7 25 -30 30 l-30 6 0 110 0 110 30 0 c25 0 30 4 30 25 0 21
-5 25 -30 25 -28 0 -30 2 -30 40 0 39 -1 40 -35 40 -34 0 -35 -1 -35 -40z"/>
<path d="M1151 18162 c-48 -26 -71 -74 -71 -147 0 -73 23 -121 71 -147 105
-56 219 20 219 147 0 127 -114 203 -219 147z m123 -55 c46 -46 42 -158 -7
-192 -31 -22 -62 -19 -94 9 -25 22 -28 30 -28 91 0 61 3 69 28 91 35 30 71 31
101 1z"/>
<path d="M1723 18164 c-50 -25 -76 -76 -77 -148 -1 -74 26 -125 81 -151 47
-22 120 -16 162 14 31 22 31 24 15 42 -16 18 -19 18 -35 3 -10 -9 -36 -18 -58
-21 -35 -5 -44 -2 -71 25 -16 17 -30 40 -30 51 0 20 5 21 106 21 l106 0 -4 56
c-4 45 -10 61 -35 86 -39 38 -110 48 -160 22z m116 -60 c37 -47 29 -54 -54
-54 -41 0 -75 2 -75 5 0 14 31 64 42 68 33 14 67 6 87 -19z"/>
<path d="M0 4065 l0 -4065 5400 0 5400 0 0 4065 0 4065 -5400 0 -5400 0 0
-4065z m10171 3676 c29 -29 29 -30 29 -151 0 -121 0 -122 -29 -151 -20 -20
-39 -29 -61 -29 -22 0 -41 9 -61 29 -29 29 -29 30 -29 151 0 121 0 122 29 151
20 20 39 29 61 29 22 0 41 -9 61 -29z m-7674 -24 c28 -27 28 -27 31 -190 l3
-162 -89 -88 -89 -88 -161 3 c-161 3 -162 3 -189 31 l-28 27 0 219 c0 205 1
220 20 241 11 12 29 26 40 31 11 4 113 7 227 6 l208 -2 27 -28z m4423 -27 l11
-40 132 0 c90 0 137 -4 145 -12 9 -9 12 -68 12 -204 0 -163 -2 -195 -16 -209
-13 -13 -36 -15 -132 -13 l-115 3 -12 35 -12 35 -103 3 c-57 1 -110 8 -117 14
-10 8 -13 57 -13 204 0 162 3 195 16 208 12 12 37 16 104 16 l89 0 11 -40z
m-1464 -8 c8 -50 33 -67 80 -52 41 14 43 13 74 -44 l24 -45 -27 -21 c-18 -14
-27 -31 -27 -50 0 -19 9 -36 27 -50 l27 -21 -24 -45 c-31 -57 -33 -58 -74 -44
-47 15 -72 -2 -80 -52 l-6 -38 -60 0 -60 0 -6 38 c-8 50 -33 67 -80 52 -41
-14 -43 -13 -74 44 l-24 45 27 21 c18 14 27 31 27 50 0 19 -9 36 -27 50 l-27
21 24 45 c31 57 33 58 74 44 47 -15 72 2 80 52 l6 38 60 0 60 0 6 -38z m3155
22 c135 -40 210 -197 138 -288 -29 -37 -55 -49 -123 -55 -67 -7 -90 -27 -68
-61 64 -103 -107 -102 -204 2 -52 54 -68 96 -68 168 0 72 16 114 68 168 70 75
153 97 257 66z m-7971 -14 c16 -16 20 -33 20 -85 0 -89 -16 -105 -105 -105
-89 0 -105 16 -105 105 0 89 16 105 105 105 52 0 69 -4 85 -20z m270 0 c16
-16 20 -33 20 -85 0 -89 -16 -105 -105 -105 -89 0 -105 16 -105 105 0 89 16
105 105 105 52 0 69 -4 85 -20z m2801 -101 c11 -11 19 -28 17 -37 -3 -14 -18
-18 -86 -20 l-82 -3 0 -69 0 -70 44 0 c44 0 45 0 48 38 3 35 5 37 38 37 35 0
35 0 38 -48 2 -32 -2 -57 -13 -73 -14 -22 -21 -24 -105 -24 -119 0 -120 1
-120 142 0 145 3 148 117 148 70 0 86 -3 104 -21z m159 -124 l0 -145 -35 0
-35 0 0 145 0 145 35 0 35 0 0 -145z m280 105 l0 -40 -70 0 c-63 0 -70 -2 -70
-20 0 -17 7 -20 45 -20 l45 0 0 -40 0 -40 -45 0 -45 0 0 -45 c0 -45 0 -45 -35
-45 l-35 0 0 145 0 145 105 0 105 0 0 -40z m5818 -109 c24 -79 106 -125 181
-103 49 15 88 54 103 103 9 33 15 39 40 39 34 0 37 -25 9 -85 -24 -51 -68 -93
-117 -110 -37 -12 -39 -16 -42 -59 -3 -43 -5 -46 -32 -46 -27 0 -29 3 -32 46
-3 43 -5 47 -42 59 -49 17 -93 59 -117 110 -28 60 -25 85 9 85 25 0 31 -6 40
-39z m-9328 -41 c16 -16 20 -33 20 -85 0 -89 -16 -105 -105 -105 -89 0 -105
16 -105 105 0 89 16 105 105 105 52 0 69 -4 85 -20z m270 0 c16 -16 20 -33 20
-85 0 -89 -16 -105 -105 -105 -89 0 -105 16 -105 105 0 89 16 105 105 105 52
0 69 -4 85 -20z m40 -1060 c0 -91 -3 -110 -15 -110 -12 0 -15 16 -15 85 0 47
-3 85 -6 85 -3 0 -14 -5 -25 -10 -15 -9 -19 -7 -19 5 0 14 54 55 73 55 4 0 7
-49 7 -110z m1058 94 c38 -26 30 -73 -24 -133 l-46 -51 46 0 c25 0 46 -4 46
-10 0 -6 -30 -10 -70 -10 -38 0 -70 3 -70 6 0 3 25 35 55 70 57 68 63 82 43
102 -18 18 -45 15 -60 -7 -10 -14 -18 -17 -28 -10 -12 8 -10 14 13 34 32 29
63 32 95 9z m1082 3 c0 -8 -11 -24 -25 -37 -27 -25 -32 -40 -13 -40 23 0 48
-34 48 -66 0 -37 -37 -74 -75 -74 -32 0 -73 35 -59 50 8 8 14 7 24 -5 27 -32
80 -12 80 32 0 28 -31 46 -65 37 -34 -9 -31 4 12 48 l37 38 -42 0 c-31 0 -42
4 -42 15 0 12 13 15 60 15 43 0 60 -4 60 -13z m1060 -68 c0 -55 3 -69 15 -69
8 0 15 -4 15 -10 0 -5 -7 -10 -15 -10 -9 0 -15 -9 -15 -25 0 -16 -6 -25 -15
-25 -9 0 -15 9 -15 25 0 23 -3 25 -50 25 -28 0 -50 5 -50 11 0 18 110 160 120
154 6 -3 10 -37 10 -76z m1080 66 c0 -11 -12 -15 -45 -15 -43 0 -45 -1 -45
-28 0 -26 3 -28 29 -24 66 9 98 -85 44 -128 -20 -16 -36 -20 -58 -16 -39 8
-63 32 -48 47 9 9 16 8 28 -5 31 -30 75 -14 75 29 0 39 -50 61 -77 34 -20 -20
-34 0 -28 39 14 86 10 82 70 82 42 0 55 -3 55 -15z m1040 4 c0 -6 -12 -25 -26
-44 l-25 -34 38 -3 c30 -2 41 -9 51 -31 36 -75 -63 -141 -122 -81 -38 38 -27
92 35 167 30 37 49 47 49 26z m1116 -2 c7 -20 -84 -207 -101 -207 -8 0 -15 2
-15 4 0 2 18 42 40 90 22 47 40 89 40 91 0 3 -25 5 -55 5 -51 0 -65 7 -48 23
12 13 133 8 139 -6z m1044 -7 c21 -21 25 -46 11 -69 -6 -10 -5 -22 5 -35 19
-28 18 -60 -3 -79 -43 -38 -114 -28 -135 18 -10 22 -8 30 10 54 18 25 19 31 7
41 -23 19 -18 46 11 69 34 26 68 27 94 1z m1064 -1 c39 -31 36 -80 -10 -146
-24 -34 -44 -53 -56 -53 -22 0 -19 6 26 58 l19 22 -36 0 c-64 0 -89 69 -42
115 30 30 64 32 99 4z m1071 -4 c22 -21 25 -33 25 -90 0 -57 -3 -69 -25 -90
-13 -14 -36 -25 -50 -25 -14 0 -37 11 -50 25 -22 21 -25 33 -25 90 0 57 3 69
25 90 13 14 36 25 50 25 14 0 37 -11 50 -25z m-2465 -214 c20 -38 -13 -71 -51
-51 -21 12 -25 40 -7 58 18 18 46 14 58 -7z m-3240 -66 l0 -45 50 0 c47 0 50
-2 50 -25 0 -23 -3 -25 -51 -25 l-51 0 4 -125 c2 -77 8 -129 16 -137 6 -6 27
-12 47 -12 29 -1 35 -5 35 -23 0 -29 -37 -39 -84 -23 -60 19 -66 38 -66 187
l0 133 -35 0 c-31 0 -35 3 -35 25 0 22 4 25 35 25 35 0 35 0 35 45 0 41 2 45
25 45 23 0 25 -4 25 -45z m-4234 -45 c6 0 28 -11 48 -25 l36 -24 0 24 c0 20 5
25 25 25 l25 0 0 -260 0 -260 -30 0 -30 0 0 95 0 95 -24 -15 c-64 -43 -145
-37 -200 13 -39 37 -56 81 -56 147 0 66 17 110 56 147 32 29 88 49 119 42 11
-2 25 -4 31 -4z m9669 -21 c105 -63 105 -264 0 -329 -49 -30 -120 -31 -168 -2
l-37 21 0 -94 0 -95 -30 0 -30 0 0 260 0 260 25 0 c20 0 25 -5 25 -25 l0 -26
29 22 c55 40 127 44 186 8z m-8810 -121 c21 -76 42 -138 45 -138 3 0 26 62 51
138 44 135 46 137 76 140 l31 3 48 -145 c27 -80 51 -142 55 -138 3 4 23 69 44
145 38 136 39 137 68 137 19 0 28 -4 25 -12 -3 -7 -29 -91 -58 -185 l-53 -173
-31 0 -32 0 -48 148 -49 147 -50 -148 -49 -148 -30 3 c-31 3 -31 4 -84 173
-29 94 -54 176 -54 183 0 9 10 12 28 10 26 -3 29 -9 67 -140z m1327 125 c41
-25 68 -72 75 -132 l6 -51 -137 0 c-134 0 -136 0 -136 -22 0 -94 139 -141 199
-67 12 16 23 20 39 15 30 -10 28 -22 -11 -61 -58 -58 -161 -56 -232 6 -43 38
-58 85 -53 165 4 71 23 104 78 142 42 28 128 30 172 5z m928 -15 c0 -33 1 -33
18 -12 23 29 54 44 91 44 26 0 31 -4 31 -25 0 -21 -5 -25 -31 -25 -79 0 -99
-40 -99 -200 l0 -120 -30 0 -30 0 0 185 0 185 25 0 c21 0 25 -5 25 -32z m2130
-121 l57 -149 60 149 c54 136 61 148 86 151 15 2 27 -2 27 -7 0 -14 -199 -493
-210 -504 -4 -5 -19 -7 -34 -5 l-26 3 34 71 34 71 -68 166 c-92 224 -89 209
-50 205 32 -3 33 -6 90 -151z m1020 13 c0 -127 2 -142 20 -160 11 -11 30 -20
43 -21 115 -6 137 26 137 201 l0 120 30 0 30 0 0 -185 0 -185 -25 0 c-21 0
-25 5 -25 30 l0 29 -24 -24 c-31 -30 -91 -47 -136 -36 -95 22 -110 53 -110
235 l0 136 30 0 30 0 0 -140z m1205 -45 l0 -180 -27 -3 -28 -3 0 186 0 186 28
-3 27 -3 0 -180z m1136 162 c51 -34 79 -91 79 -160 0 -71 -17 -114 -59 -150
-66 -55 -155 -56 -219 -2 -91 77 -82 246 17 312 47 32 135 32 182 0z m-4793
-1354 c3 -20 -1 -23 -31 -23 -45 0 -73 -25 -81 -72 l-7 -38 51 0 c47 0 50 -2
50 -25 0 -23 -3 -25 -50 -25 l-50 0 0 -160 0 -160 -25 0 -25 0 0 159 0 160
-32 3 c-25 2 -33 8 -33 23 0 15 8 21 33 23 30 3 32 6 32 40 0 20 6 48 13 62
28 56 148 81 155 33z m-1018 -243 l0 -260 -25 0 c-20 0 -25 5 -25 26 l0 26
-29 -25 c-63 -53 -155 -43 -214 22 -40 45 -52 86 -45 166 5 60 39 115 88 140
41 21 118 19 158 -5 l32 -20 0 95 0 95 30 0 30 0 0 -260z m2940 164 l0 -96 34
21 c40 25 123 28 165 6 49 -25 61 -67 61 -219 l0 -136 -30 0 -30 0 0 140 c0
127 -2 142 -20 160 -26 26 -105 27 -136 2 -38 -30 -44 -57 -44 -181 l0 -121
-30 0 -30 0 0 260 0 260 30 0 30 0 0 -96z m2140 -56 l0 -153 78 78 c64 64 83
77 110 77 17 0 32 -4 32 -9 0 -5 -36 -43 -80 -83 -44 -40 -80 -76 -80 -80 0
-4 41 -50 91 -103 l91 -95 -38 0 c-36 -1 -45 6 -121 87 l-82 88 -1 -87 0 -88
-30 0 -30 0 0 260 0 260 30 0 30 0 0 -152z m1200 -108 l0 -260 -30 0 -30 0 0
260 0 260 30 0 30 0 0 -260z m-2100 225 c14 -17 5 -51 -16 -59 -22 -8 -54 11
-54 32 0 38 46 56 70 27z m-6379 -132 c49 -29 59 -65 59 -217 l0 -136 -25 0
c-19 0 -25 5 -25 21 l0 21 -32 -20 c-119 -72 -262 8 -215 121 22 50 59 69 151
76 75 6 81 8 84 29 2 15 -5 33 -19 48 -31 33 -105 34 -141 1 -20 -18 -29 -21
-46 -14 -12 6 -22 13 -22 17 0 9 40 44 65 58 32 18 133 15 166 -5z m1075 -16
c13 -16 24 -32 24 -36 0 -16 -43 -20 -54 -6 -26 33 -98 40 -133 12 -21 -16
-15 -55 10 -71 12 -7 47 -19 77 -26 92 -22 131 -82 99 -153 -37 -81 -210 -83
-263 -3 -15 24 -15 26 5 36 17 10 24 7 43 -13 26 -28 73 -41 115 -32 38 8 53
27 49 62 -3 31 -26 45 -108 67 -72 20 -100 46 -100 94 1 72 47 104 144 99 60
-2 71 -6 92 -30z m3178 8 l36 -24 0 24 c0 20 5 25 25 25 l25 0 0 -200 c0 -223
-7 -255 -70 -300 -37 -26 -124 -37 -173 -21 -41 14 -87 53 -87 75 0 30 37 28
68 -4 25 -25 39 -30 76 -30 25 0 56 5 69 11 32 15 57 59 57 103 l0 36 -32 -20
c-47 -28 -125 -27 -169 3 -18 12 -44 40 -57 62 -32 55 -28 164 7 214 53 74
153 95 225 46z m2126 -192 c0 -188 -2 -223 -18 -253 -21 -42 -55 -61 -102 -58
-28 2 -36 8 -38 26 -3 19 1 22 32 22 62 0 66 14 66 262 l0 218 30 0 30 0 0
-217z m-6567 -1291 c92 -93 167 -174 167 -181 0 -6 -11 -23 -25 -36 -18 -19
-35 -25 -69 -25 l-44 0 -4 -100 c-4 -137 0 -134 -186 -138 -138 -3 -149 -2
-175 18 -26 21 -27 25 -27 121 l0 99 -50 0 c-41 0 -56 5 -75 25 -14 13 -25 30
-25 36 0 12 328 349 340 349 3 0 81 -76 173 -168z m5307 42 l0 -96 34 21 c41
26 114 28 162 5 81 -39 114 -177 65 -272 -49 -95 -173 -117 -253 -45 -17 15
-18 14 -18 -10 0 -22 -5 -27 -25 -27 l-25 0 0 260 0 260 30 0 30 0 0 -96z
m3899 55 c56 -20 61 -42 61 -299 l0 -232 -29 -29 -29 -29 -248 0 -247 0 -31
34 c-17 18 -64 85 -104 149 l-73 115 88 137 c64 100 96 141 118 151 39 17 446
20 494 3z m-7899 -131 c-1 -14 -46 -79 -109 -158 l-108 -135 114 -3 c113 -3
113 -3 113 -27 l0 -25 -155 0 c-141 0 -155 2 -155 18 0 9 50 79 110 155 61 75
110 139 110 142 0 3 -47 5 -105 5 l-105 0 0 25 0 25 145 0 c144 0 145 0 145
-22z m860 -44 c24 -36 47 -67 51 -69 3 -3 28 27 54 65 41 59 53 70 77 70 15 0
28 -2 28 -6 0 -3 -25 -39 -56 -80 -30 -42 -58 -82 -61 -89 -3 -8 8 -32 24 -52
16 -21 46 -62 67 -90 l38 -53 -35 0 c-31 0 -38 6 -83 70 -27 38 -51 70 -54 70
-3 0 -27 -32 -53 -70 -41 -60 -52 -70 -78 -70 -16 0 -29 2 -29 6 0 4 83 121
121 169 5 7 -19 47 -57 98 -35 48 -64 89 -64 92 0 3 15 5 33 5 28 0 37 -8 77
-66z m1228 46 c42 -26 51 -49 27 -66 -17 -12 -22 -11 -46 12 -31 30 -91 35
-128 12 -51 -31 -69 -154 -32 -214 25 -42 78 -60 125 -44 19 6 37 17 40 25 7
20 45 19 53 -1 8 -22 -34 -63 -80 -75 -90 -24 -196 39 -213 126 -18 98 12 185
80 226 43 26 130 26 174 -1z m900 -127 c30 -79 58 -143 61 -143 3 0 31 64 62
143 51 130 58 142 82 145 16 2 27 -2 27 -9 0 -10 -101 -266 -132 -334 -9 -21
-18 -25 -42 -23 -30 3 -33 8 -103 178 -40 96 -73 179 -73 183 0 5 14 7 31 5
31 -3 33 -7 87 -145z m2082 116 l0 -31 35 31 c31 27 43 31 91 31 30 0 68 -7
84 -15 51 -26 60 -58 60 -215 l0 -141 -27 3 -28 3 -5 143 c-6 162 -10 172 -81
172 -96 0 -119 -40 -119 -204 l0 -116 -30 0 -30 0 0 185 0 185 25 0 c21 0 25
-5 25 -31z m970 5 l0 -25 33 25 c27 21 45 26 91 26 52 0 61 -3 87 -31 16 -17
29 -26 29 -20 0 23 64 51 117 51 44 0 58 -5 85 -29 l33 -29 3 -156 3 -156 -30
0 -31 0 0 139 c0 118 -3 142 -17 159 -27 32 -87 33 -124 3 -23 -18 -24 -27
-29 -158 l-5 -138 -27 -3 -28 -3 0 125 c0 122 -9 173 -33 188 -7 4 -31 8 -54
8 -34 0 -46 -5 -67 -31 -25 -29 -26 -35 -26 -160 l0 -129 -30 0 -30 0 0 185 0
185 25 0 c20 0 25 -5 25 -26z m-7293 -1050 c249 -51 436 -238 487 -487 20 -96
20 -148 0 -244 -51 -249 -238 -436 -487 -487 -103 -22 -351 -22 -454 0 -249
51 -436 238 -487 487 -20 96 -20 148 0 244 51 246 237 434 480 487 97 20 362
21 461 0z m9088 1 c236 -49 431 -244 480 -480 30 -143 12 -276 -56 -414 -80
-163 -244 -288 -424 -326 -95 -20 -385 -20 -480 0 -180 38 -344 163 -424 326
-94 190 -94 378 0 568 79 161 243 288 419 325 91 20 393 20 485 1z m-7915
-218 c50 -26 90 -90 90 -142 0 -52 -40 -116 -90 -142 -55 -29 -95 -29 -150 0
-50 26 -90 90 -90 142 0 18 10 51 23 75 26 50 90 90 142 90 18 0 51 -10 75
-23z m1095 -108 c74 -28 146 -100 174 -174 42 -112 17 -229 -69 -315 -120
-119 -300 -119 -420 0 -119 120 -119 300 1 420 85 85 202 111 314 69z m2673
-286 c-3 -124 -5 -148 -18 -148 -13 0 -15 24 -18 148 -2 143 -2 147 18 147 20
0 20 -4 18 -147z m352 91 c0 -55 0 -55 22 -40 31 22 60 20 92 -5 25 -19 26
-25 26 -110 0 -72 -3 -89 -15 -89 -12 0 -15 15 -15 79 0 59 -4 84 -16 95 -20
21 -47 20 -73 -1 -17 -15 -21 -31 -23 -93 -2 -59 -6 -75 -18 -75 -13 0 -15 24
-18 148 -2 142 -2 147 18 147 18 0 20 -6 20 -56z m-880 31 c0 -12 -14 -15 -70
-15 l-70 0 0 -45 0 -45 65 0 c51 0 65 -3 65 -15 0 -12 -14 -15 -65 -15 l-65 0
0 -50 0 -49 67 -3 c55 -2 68 -6 71 -20 3 -16 -6 -18 -82 -18 l-86 0 0 145 0
145 85 0 c69 0 85 -3 85 -15z m609 1 c9 -10 8 -16 -4 -26 -19 -16 -41 1 -32
24 8 20 21 20 36 2z m-434 -68 c32 -15 47 -64 43 -143 -2 -45 -7 -60 -18 -60
-12 0 -16 17 -18 82 -3 91 -16 110 -67 97 -35 -9 -39 -19 -45 -104 -4 -58 -8
-75 -20 -75 -12 0 -16 19 -18 103 -2 84 0 102 12 102 8 0 16 -5 18 -12 3 -8
11 -7 28 5 29 20 50 21 85 5z m218 -2 c15 -8 27 -11 27 -5 0 5 7 9 15 9 22 0
22 -208 0 -250 -28 -55 -125 -63 -166 -14 -22 26 6 39 30 15 39 -39 103 -17
117 41 l6 27 -32 -15 c-64 -33 -133 16 -133 95 0 84 67 132 136 97z m396 -10
c22 -23 4 -38 -24 -20 -31 21 -75 11 -75 -15 0 -14 11 -23 38 -31 82 -27 105
-67 62 -110 -34 -34 -130 -19 -138 23 -4 21 14 22 34 2 20 -20 68 -19 85 1 11
14 10 19 -10 35 -13 11 -32 19 -43 19 -10 0 -30 11 -43 24 -19 20 -23 30 -16
48 16 46 93 60 130 24z m-179 -91 c0 -87 -3 -105 -15 -105 -12 0 -15 18 -15
105 0 87 3 105 15 105 12 0 15 -18 15 -105z m-3902 -197 c16 -16 15 -41 -5
-83 -10 -20 -24 -35 -34 -35 -16 0 -16 2 -3 30 14 27 14 32 0 46 -9 8 -16 19
-16 23 0 11 23 31 35 31 6 0 16 -5 23 -12z m6411 -2 c17 -20 3 -46 -24 -46
-29 0 -38 13 -30 40 7 23 37 26 54 6z"/>
<path d="M2042 7678 c-17 -17 -17 -399 0 -416 8 -8 56 -12 149 -12 l136 0 6
42 c7 54 41 88 95 95 l42 6 0 136 c0 93 -4 141 -12 149 -9 9 -69 12 -208 12
-139 0 -199 -3 -208 -12z m296 -74 c22 -15 29 -38 14 -48 -4 -2 -24 -7 -45
-11 -36 -7 -37 -7 -37 23 0 19 7 35 18 41 23 14 24 14 50 -5z m-170 -50 c32
-22 27 -41 -13 -54 -61 -20 -87 8 -45 50 24 24 29 24 58 4z m211 -91 c-16 -43
-69 -92 -106 -99 -47 -9 -99 3 -130 30 l-27 23 59 17 c33 10 87 26 120 36 88
27 97 26 84 -7z"/>
<path d="M6940 7627 c0 -2 7 -27 15 -55 14 -44 19 -52 40 -52 16 0 25 6 25 15
0 8 7 15 15 15 8 0 15 -7 15 -15 0 -11 12 -15 45 -15 33 0 45 -4 45 -15 0 -8
-7 -15 -15 -15 -9 0 -18 -8 -22 -17 -3 -10 -14 -30 -24 -44 -18 -26 -18 -26
16 -59 24 -23 32 -37 25 -44 -7 -7 -22 1 -45 24 -27 26 -38 31 -47 22 -9 -9
-9 -21 0 -49 10 -33 9 -40 -10 -60 l-21 -23 96 0 97 0 0 189 c0 163 -2 190
-16 195 -16 6 -234 9 -234 3z"/>
<path d="M6759 7581 c-79 -79 11 -210 114 -167 39 16 57 41 57 80 0 24 -3 26
-50 26 -38 0 -50 -4 -50 -15 0 -9 9 -15 24 -15 31 0 40 -14 22 -30 -26 -20
-79 -8 -96 23 -13 24 -13 30 0 55 13 22 24 27 55 28 62 2 65 3 65 18 0 18 -22
26 -72 26 -30 0 -46 -7 -69 -29z"/>
<path d="M6980 7480 c0 -5 7 -10 15 -10 8 0 19 -9 25 -20 15 -28 27 -25 45 10
l16 30 -51 0 c-27 0 -50 -4 -50 -10z"/>
<path d="M7000 7410 c0 -5 5 -10 11 -10 5 0 7 5 4 10 -3 6 -8 10 -11 10 -2 0
-4 -4 -4 -10z"/>
<path d="M5354 7546 c-66 -29 -62 -131 5 -154 103 -36 165 112 65 154 -39 16
-32 16 -70 0z"/>
<path d="M8430 7645 c-26 -32 13 -81 48 -59 34 22 22 74 -18 74 -10 0 -23 -7
-30 -15z"/>
<path d="M8570 7645 c-26 -32 13 -81 48 -59 34 22 22 74 -18 74 -10 0 -23 -7
-30 -15z"/>
<path d="M8350 7535 c-26 -32 13 -81 48 -59 34 22 22 74 -18 74 -10 0 -23 -7
-30 -15z"/>
<path d="M8650 7535 c-26 -32 13 -81 48 -59 34 22 22 74 -18 74 -10 0 -23 -7
-30 -15z"/>
<path d="M504 7647 c-3 -8 -4 -32 -2 -53 l3 -39 50 0 50 0 0 50 0 50 -48 3
c-34 2 -49 -1 -53 -11z"/>
<path d="M774 7647 c-3 -8 -4 -32 -2 -53 l3 -39 50 0 50 0 0 50 0 50 -48 3
c-34 2 -49 -1 -53 -11z"/>
<path d="M504 7377 c-3 -8 -4 -32 -2 -53 l3 -39 50 0 50 0 0 50 0 50 -48 3
c-34 2 -49 -1 -53 -11z"/>
<path d="M774 7377 c-3 -8 -4 -32 -2 -53 l3 -39 50 0 50 0 0 50 0 50 -48 3
c-34 2 -49 -1 -53 -11z"/>
<path d="M4086 6366 c-14 -19 -26 -37 -26 -40 0 -3 14 -6 30 -6 28 0 30 2 30
40 0 22 -2 40 -4 40 -2 0 -15 -15 -30 -34z"/>
<path d="M6210 6346 c-28 -35 11 -93 48 -70 35 22 22 84 -18 84 -10 0 -23 -7
-30 -14z"/>
<path d="M8354 6425 c-10 -25 4 -45 30 -45 30 0 40 13 31 40 -8 24 -53 28 -61
5z"/>
<path d="M8352 6338 c-27 -27 -6 -68 35 -68 29 0 48 33 33 60 -12 22 -49 27
-68 8z"/>
<path d="M9410 6420 c-21 -40 12 -80 54 -64 22 8 31 50 16 69 -18 22 -57 19
-70 -5z"/>
<path d="M10480 6421 c-14 -28 -12 -114 3 -136 18 -24 62 -14 71 17 9 34 7 83
-4 112 -12 32 -54 36 -70 7z"/>
<path d="M555 6070 c-11 -4 -31 -20 -45 -35 -22 -23 -25 -36 -25 -100 0 -67 2
-76 28 -103 36 -37 77 -46 123 -27 87 36 87 224 0 260 -39 17 -52 17 -81 5z"/>
<path d="M10161 6067 c-75 -38 -95 -165 -36 -235 30 -36 75 -46 120 -28 44 19
65 61 65 131 0 70 -21 112 -65 131 -42 17 -53 17 -84 1z"/>
<path d="M2692 6068 c-21 -6 -40 -21 -52 -41 -34 -55 -30 -57 85 -57 58 0 105
2 105 5 0 14 -29 73 -39 80 -26 15 -68 21 -99 13z"/>
<path d="M9067 6044 c-30 -30 -42 -76 -34 -139 6 -60 29 -92 75 -106 82 -24
142 33 142 135 0 91 -37 136 -111 136 -37 0 -52 -5 -72 -26z"/>
<path d="M3230 4562 c-75 -12 -115 -130 -74 -217 15 -33 64 -65 99 -65 29 0
74 30 90 60 19 38 19 123 0 165 -21 42 -65 65 -115 57z"/>
<path d="M1126 4411 c-44 -5 -63 -12 -77 -30 -23 -28 -24 -40 -4 -68 19 -28
57 -36 105 -23 48 13 70 42 70 92 0 30 -4 38 -17 37 -10 -1 -44 -5 -77 -8z"/>
<path d="M5344 4556 c-38 -17 -64 -69 -64 -131 0 -85 41 -135 110 -135 73 0
110 46 110 136 0 66 -23 112 -64 129 -43 18 -52 18 -92 1z"/>
<path d="M730 3055 l-125 -125 63 0 62 0 0 -120 0 -120 130 0 130 0 0 120 0
120 62 0 63 0 -125 125 c-69 69 -127 125 -130 125 -3 0 -61 -56 -130 -125z"/>
<path d="M6430 3042 c-92 -14 -122 -171 -48 -249 46 -49 131 -35 163 27 22 43
20 137 -5 178 -11 17 -21 32 -22 32 -2 0 -17 4 -33 8 -17 4 -41 6 -55 4z"/>
<path d="M9693 3027 c-40 -63 -73 -117 -73 -120 0 -11 132 -212 148 -224 18
-15 428 -19 450 -5 9 7 12 60 10 233 l-3 224 -230 3 -230 2 -72 -113z m233
-29 l45 -41 43 42 c77 76 121 32 45 -45 l-42 -43 42 -46 c73 -79 32 -119 -45
-44 l-44 43 -44 -43 c-77 -76 -121 -32 -45 45 l43 44 -42 43 c-40 40 -51 65
-35 80 14 15 35 5 79 -35z"/>
<path d="M458 1564 c-24 -12 -48 -42 -48 -57 0 -3 7 -8 16 -11 10 -4 25 3 40
19 30 33 71 33 86 0 9 -19 8 -29 -6 -47 -9 -13 -28 -38 -41 -57 -32 -44 -34
-84 -3 -79 15 2 24 13 30 33 4 17 23 45 43 63 26 25 35 42 35 65 -1 72 -81
110 -152 71z"/>
<path d="M895 1555 c-50 -26 -71 -67 -40 -78 8 -4 27 6 44 23 35 35 54 37 81
10 38 -38 21 -76 -74 -170 -43 -42 -66 -72 -66 -87 0 -22 2 -23 105 -23 98 0
105 1 105 20 0 18 -7 20 -70 20 -38 0 -70 4 -70 8 0 4 25 32 56 62 84 83 99
122 69 179 -14 27 -58 51 -94 51 -9 0 -29 -7 -46 -15z"/>
<path d="M688 1536 c-26 -14 -38 -28 -38 -43 0 -27 7 -28 34 -8 11 8 23 15 28
15 4 0 9 -60 10 -132 3 -129 4 -133 26 -136 l22 -3 0 165 c0 166 0 166 -22
165 -13 -1 -40 -11 -60 -23z"/>
<path d="M1100 1540 c0 -18 7 -20 56 -20 l57 0 -52 -55 c-43 -46 -51 -58 -41
-70 9 -11 17 -12 30 -5 29 15 65 12 83 -8 38 -42 6 -112 -51 -112 -16 0 -37 9
-47 20 -20 22 -40 26 -51 9 -14 -23 42 -62 95 -67 47 -4 53 -2 86 31 56 56 44
135 -27 167 l-37 17 39 38 c22 22 40 47 40 57 0 16 -10 18 -90 18 -83 0 -90
-1 -90 -20z"/>
<path d="M481 1272 c-8 -15 -7 -23 4 -32 21 -18 47 -4 43 22 -4 29 -34 35 -47
10z"/>
<path d="M9998 1443 l-158 -158 -63 63 c-63 62 -63 63 -82 42 -10 -11 -16 -22
-14 -24 2 -3 40 -41 83 -86 l79 -82 181 181 c178 178 180 180 161 201 -10 11
-21 20 -24 20 -3 0 -77 -71 -163 -157z"/>
<path d="M2119 1763 c-56 -35 -76 -116 -43 -173 65 -108 234 -61 234 65 0 97
-110 159 -191 108z m26 -68 c0 -11 -7 -21 -16 -23 -18 -3 -33 23 -23 39 10 17
39 5 39 -16z m119 16 c9 -14 -4 -41 -19 -41 -18 0 -28 17 -21 35 6 17 32 20
40 6z m-15 -117 c-19 -19 -37 -26 -64 -26 -27 0 -45 7 -64 26 l-26 26 90 0 90
0 -26 -26z"/>
<path d="M3221 1597 c-30 -62 -28 -67 29 -67 32 0 50 4 50 12 0 18 -41 98 -50
98 -5 0 -18 -19 -29 -43z"/>
<path d="M3135 1618 c-26 -14 -85 -70 -85 -80 0 -4 17 -8 38 -8 36 0 39 2 59
50 22 52 21 56 -12 38z"/>
<path d="M3353 1580 c20 -48 23 -50 59 -50 21 0 38 4 38 8 0 18 -92 92 -113
92 -3 0 4 -22 16 -50z"/>
<path d="M3016 1454 c-3 -9 -6 -28 -6 -44 0 -51 8 -60 59 -60 l46 0 0 60 0 60
-46 0 c-34 0 -49 -5 -53 -16z"/>
<path d="M3180 1410 l0 -60 70 0 70 0 0 60 0 60 -70 0 -70 0 0 -60z"/>
<path d="M3385 1410 l0 -60 46 0 c51 0 59 9 59 60 0 51 -8 60 -59 60 l-46 0 0
-60z"/>
<path d="M3050 1282 c0 -18 92 -92 113 -92 3 0 -4 23 -16 50 -20 48 -23 50
-59 50 -21 0 -38 -4 -38 -8z"/>
<path d="M3200 1278 c0 -18 41 -98 50 -98 9 0 50 80 50 98 0 8 -18 12 -50 12
-32 0 -50 -4 -50 -12z"/>
<path d="M3353 1240 c-12 -27 -19 -50 -16 -50 21 0 113 74 113 92 0 4 -17 8
-38 8 -36 0 -39 -2 -59 -50z"/>
<path d="M5811 1414 c-42 -53 -14 -133 45 -134 55 0 80 105 34 142 -31 25 -55
23 -79 -8z"/>
</g>
</svg>
