<?xml version="1.0" standalone="no"?>
<!DOCTYPE svg PUBLIC "-//W3C//DTD SVG 20010904//EN"
 "http://www.w3.org/TR/2001/REC-SVG-20010904/DTD/svg10.dtd">
<svg version="1.0" xmlns="http://www.w3.org/2000/svg"
 width="408.000000pt" height="865.000000pt" viewBox="0 0 408.000000 865.000000"
 preserveAspectRatio="xMidYMid meet">

<g transform="translate(0.000000,865.000000) scale(0.100000,-0.100000)"
fill="#000000" stroke="none">
<path d="M0 4325 l0 -4325 2040 0 2040 0 0 4325 0 4325 -2040 0 -2040 0 0
-4325z m2803 4278 c-403 -2 -1063 -2 -1465 0 -403 1 -74 2 732 2 806 0 1135
-1 733 -2z m-2260 -10 c-7 -2 -19 -2 -25 0 -7 3 -2 5 12 5 14 0 19 -2 13 -5z
m3090 0 c-13 -2 -33 -2 -45 0 -13 2 -3 4 22 4 25 0 35 -2 23 -4z m64 -9 c-3
-3 -12 -4 -19 -1 -8 3 -5 6 6 6 11 1 17 -2 13 -5z m-3225 -49 c1 -6 -26 -25
-58 -43 -85 -48 -159 -124 -200 -207 -57 -116 -63 -170 -65 -540 -1 -181 -5
-404 -9 -495 -5 -124 -7 -47 -9 310 -3 589 -3 598 15 668 21 81 49 134 100
191 50 55 92 84 162 112 49 19 63 20 64 4z m-375 -337 c-3 -7 -5 -2 -5 12 0
14 2 19 5 13 2 -7 2 -19 0 -25z m-10 -3946 c-1 -719 -2 -130 -2 1308 0 1438 1
2027 2 1308 2 -720 2 -1896 0 -2616z m3331 3783 c11 -10 7 -19 -21 -53 l-34
-40 -37 44 -37 44 33 15 c35 14 74 11 96 -10z m258 11 c8 -8 14 -34 14 -60 0
-46 0 -46 -35 -46 l-35 0 0 50 c0 38 4 50 15 50 8 0 15 5 15 10 0 14 9 12 26
-4z m-2769 -17 c2 -20 1 -20 -11 -4 -15 21 -50 16 -54 -8 -3 -14 4 -17 33 -17
32 0 36 -3 33 -21 -6 -45 -64 -51 -76 -8 -2 9 2 7 12 -4 17 -22 49 -19 54 6 3
14 -4 17 -32 17 -34 0 -36 2 -34 30 2 27 5 30 38 30 29 0 36 -4 37 -21z m2653
-34 l0 -55 -57 0 -57 0 54 55 c30 30 56 55 57 55 2 0 3 -25 3 -55z m-3044 18
c8 -31 -6 -57 -32 -60 -16 -2 -16 -1 -1 3 21 7 23 24 3 24 -20 0 -29 16 -21
40 9 30 43 25 51 -7z m94 -18 c0 -25 -4 -45 -10 -45 -5 0 -10 16 -10 35 0 21
-5 35 -12 35 -9 0 -8 4 2 10 26 17 30 11 30 -35z m90 40 c0 -9 -40 -85 -45
-85 -2 0 3 16 11 35 18 44 18 43 -8 48 -17 3 -14 5 10 6 17 0 32 -1 32 -4z
m-563 -1022 c-2 -16 -4 -5 -4 22 0 28 2 40 4 28 2 -13 2 -35 0 -50z m2131
-1416 c9 -11 52 -158 52 -178 0 -16 -32 -39 -54 -39 -13 0 -29 7 -36 15 -11
13 -49 145 -50 172 0 34 66 57 88 30z m406 -19 c12 -20 -15 -146 -40 -185 -18
-28 -55 -30 -79 -3 -17 18 -16 23 5 102 12 46 27 89 33 96 14 18 67 11 81 -10z
m-713 -215 c67 -64 80 -94 54 -123 -29 -32 -52 -24 -116 37 -67 64 -80 94 -54
123 29 32 52 24 116 -37z m1037 21 c12 -8 22 -25 22 -37 0 -27 -117 -147 -144
-147 -25 0 -56 28 -56 50 0 17 130 150 147 150 5 0 19 -7 31 -16z m-385 -146
c102 -49 171 -118 223 -222 36 -74 39 -86 42 -182 6 -149 -29 -242 -129 -349
-44 -47 -47 -54 -51 -116 -12 -157 -118 -282 -287 -339 -60 -20 -77 -20 -634
-18 l-572 3 -55 26 c-117 55 -199 179 -208 314 -11 173 80 307 249 366 66 23
67 24 83 75 48 153 193 285 363 329 105 28 280 13 361 -29 22 -12 28 -8 81 45
102 102 200 140 351 136 98 -2 110 -5 183 -39z m575 -204 c29 -20 29 -59 0
-78 -33 -21 -147 -48 -174 -42 -27 7 -42 50 -27 75 7 12 124 53 173 60 3 1 16
-6 28 -15z m839 -256 c-2 -13 -4 -3 -4 22 0 25 2 35 4 23 2 -13 2 -33 0 -45z
m0 -275 c-1 -43 -3 -10 -3 72 0 83 2 118 3 78 2 -40 2 -107 0 -150z m-887 150
c48 -16 55 -22 58 -46 7 -61 -39 -72 -147 -34 -75 26 -90 43 -73 83 12 25 16
26 60 21 26 -3 72 -14 102 -24z m-200 -318 c59 -60 63 -67 54 -92 -7 -20 -17
-29 -38 -31 -24 -3 -40 7 -92 59 -66 65 -71 77 -54 110 21 38 61 24 130 -46z
m-670 -610 c0 -43 1 -45 20 -35 22 12 60 4 72 -14 4 -6 8 -44 8 -83 0 -58 -3
-73 -15 -73 -12 0 -15 14 -15 70 0 56 -3 72 -16 77 -34 13 -49 -11 -52 -81 -2
-50 -6 -66 -17 -66 -12 0 -15 22 -15 125 0 104 2 125 15 125 11 0 15 -12 15
-45z m-751 -12 c5 -21 12 -54 16 -73 13 -64 20 -60 44 25 14 53 28 85 37 85
12 0 54 -116 54 -149 0 -6 4 -11 8 -11 5 0 16 36 26 80 12 58 21 80 33 80 11
0 14 -6 9 -24 -3 -14 -15 -65 -27 -116 -27 -119 -43 -118 -77 5 l-26 89 -25
-92 c-35 -125 -50 -124 -80 6 -12 53 -25 105 -28 115 -3 11 1 17 11 17 9 0 19
-15 25 -37z m651 -3 c0 -11 7 -20 15 -20 8 0 15 -4 15 -10 0 -5 -7 -10 -15
-10 -12 0 -15 -13 -15 -60 0 -45 4 -62 15 -66 23 -9 18 -24 -9 -24 -30 0 -36
16 -36 91 0 46 -3 59 -15 59 -8 0 -15 5 -15 10 0 6 7 10 15 10 8 0 15 9 15 20
0 11 7 20 15 20 8 0 15 -9 15 -20z m-281 -27 c11 -10 24 -33 27 -50 l7 -33
-62 0 c-67 0 -77 -12 -40 -45 17 -16 24 -17 51 -7 36 13 46 9 28 -13 -7 -9
-29 -15 -50 -15 -30 0 -43 6 -59 26 -61 77 25 197 98 137z m169 0 c16 -14 21
-33 24 -89 l3 -71 -54 -1 c-63 -2 -81 9 -81 48 0 34 14 46 63 55 28 5 37 12
35 24 -4 19 -46 27 -61 12 -16 -16 -37 -14 -31 3 6 15 41 34 65 35 9 1 26 -7
37 -16z m471 0 c11 -10 24 -33 27 -50 l7 -33 -62 0 c-67 0 -77 -12 -40 -45 17
-16 24 -17 51 -7 36 13 46 9 28 -13 -7 -9 -29 -15 -50 -15 -30 0 -43 6 -59 26
-61 77 25 197 98 137z m148 1 c2 -5 -10 -15 -27 -21 -29 -11 -30 -13 -30 -77
0 -52 -3 -66 -15 -66 -12 0 -15 16 -15 86 0 80 1 86 19 81 10 -2 25 -1 32 4
16 10 31 7 36 -7z m-538 -516 c-23 -19 -50 -21 -56 -3 -5 17 50 43 66 31 11
-8 9 -14 -10 -28z m-2052 -2115 c-1 -323 -2 -61 -2 582 0 644 1 908 2 588 2
-320 2 -846 0 -1170z m1063 -623 c0 -38 -3 -70 -6 -70 -9 0 -114 64 -114 70 0
6 101 68 113 69 4 1 7 -30 7 -69z m1960 0 l0 -70 -65 0 -65 0 0 63 c0 35 3 67
7 70 3 4 33 7 65 7 l58 0 0 -70z m-990 40 c24 -24 25 -48 4 -78 -32 -46 -114
-17 -114 40 0 26 36 58 65 58 14 0 34 -9 45 -20z m-2023 -52 c-3 -8 -6 -5 -6
6 -1 11 2 17 5 13 3 -3 4 -12 1 -19z m133 -303 c13 -14 21 -25 18 -25 -2 0
-15 11 -28 25 -13 14 -21 25 -18 25 2 0 15 -11 28 -25z m169 -91 c2 -2 2 -7
-1 -10 -7 -6 -124 51 -133 65 -5 9 122 -44 134 -55z m944 29 c-116 -2 -310 -2
-430 0 -120 1 -24 2 212 2 237 0 335 -1 218 -2z m365 0 c-10 -2 -26 -2 -35 0
-10 3 -2 5 17 5 19 0 27 -2 18 -5z m485 0 c-7 -2 -21 -2 -30 0 -10 3 -4 5 12
5 17 0 24 -2 18 -5z m44 1 c-3 -3 -12 -4 -19 -1 -8 3 -5 6 6 6 11 1 17 -2 13
-5z m121 -1 c-10 -2 -26 -2 -35 0 -10 3 -2 5 17 5 19 0 27 -2 18 -5z"/>
<path d="M474 8019 c-10 -17 13 -36 27 -22 12 12 4 33 -11 33 -5 0 -12 -5 -16
-11z"/>
<path d="M1810 3651 c-15 -30 -14 -31 35 -31 25 0 45 3 45 6 0 20 -24 44 -45
44 -14 0 -29 -8 -35 -19z"/>
<path d="M1984 3585 c-9 -23 3 -45 24 -45 23 0 42 19 42 42 0 23 -58 26 -66 3z"/>
<path d="M2450 3651 c-15 -30 -14 -31 35 -31 25 0 45 3 45 6 0 20 -24 44 -45
44 -14 0 -29 -8 -35 -19z"/>
</g>
</svg>
