<?xml version="1.0" standalone="no"?>
<!DOCTYPE svg PUBLIC "-//W3C//DTD SVG 20010904//EN"
 "http://www.w3.org/TR/2001/REC-SVG-20010904/DTD/svg10.dtd">
<svg version="1.0" xmlns="http://www.w3.org/2000/svg"
 width="353.000000pt" height="707.000000pt" viewBox="0 0 353.000000 707.000000"
 preserveAspectRatio="xMidYMid meet">

<g transform="translate(0.000000,707.000000) scale(0.100000,-0.100000)"
fill="#000000" stroke="none">
<path d="M1390 6930 c-579 -5 -764 -9 -795 -19 -137 -45 -232 -136 -273 -262
-16 -51 -17 -236 -17 -3159 0 -2966 1 -3108 18 -3169 10 -35 25 -75 34 -90 61
-98 183 -174 305 -191 45 -6 528 -11 1233 -13 1119 -2 1289 0 1310 11 5 3 20
7 32 8 35 4 126 59 168 102 20 20 50 61 66 89 l30 52 -1 227 c0 125 -2 230 -5
234 -3 4 -5 754 -5 1666 0 1168 3 1748 12 1959 16 384 16 760 -1 1045 -9 160
-12 369 -8 723 6 492 6 498 -15 554 -27 70 -102 148 -179 186 -36 18 -84 31
-140 38 -106 12 -797 16 -1769 9z m-432 -17 c-27 -2 -69 -2 -95 0 -27 2 -5 3
47 3 52 0 74 -1 48 -3z m100 0 c-10 -2 -26 -2 -35 0 -10 3 -2 5 17 5 19 0 27
-2 18 -5z m70 0 c-10 -2 -26 -2 -35 0 -10 3 -2 5 17 5 19 0 27 -2 18 -5z m140
0 c-10 -2 -26 -2 -35 0 -10 3 -2 5 17 5 19 0 27 -2 18 -5z m130 0 c-21 -2 -55
-2 -75 0 -21 2 -4 4 37 4 41 0 58 -2 38 -4z m974 0 c-171 -2 -453 -2 -625 0
-171 1 -31 2 313 2 344 0 484 -1 312 -2z m611 0 c-13 -2 -35 -2 -50 0 -16 2
-5 4 22 4 28 0 40 -2 28 -4z m180 -10 c-7 -2 -21 -2 -30 0 -10 3 -4 5 12 5 17
0 24 -2 18 -5z m-2537 -52 c-4 -6 -22 -18 -41 -27 -83 -39 -160 -137 -196
-249 -9 -30 -14 -182 -19 -585 l-6 -545 -2 560 c-2 606 -1 619 52 709 34 58
97 111 160 135 52 20 63 20 52 2z m-299 -1703 c-1 -260 -2 -48 -2 472 0 520 1
732 2 473 2 -260 2 -686 0 -945z m1779 1405 c83 -4 129 -10 114 -14 -14 -4
196 -8 465 -9 491 -1 582 -6 578 -27 -2 -7 6 -15 17 -18 34 -11 95 -90 113
-147 16 -51 17 -241 17 -2916 l0 -2862 -1495 0 -1495 0 -2 2158 c-2 1186 -3
2481 -3 2877 l0 720 27 51 c35 67 81 111 143 140 l50 24 588 0 c362 0 586 4
582 9 -11 19 102 24 301 14z m-1779 -3581 c-1 -312 -2 -56 -2 568 0 624 1 880
2 567 2 -312 2 -822 0 -1135z m0 -2089 c-1 -258 -2 -47 -2 467 0 514 1 725 2
468 2 -258 2 -678 0 -935z m853 -504 c0 -27 -2 -49 -5 -49 -8 0 -68 31 -83 43
-9 7 -1 16 30 37 24 15 46 25 51 23 4 -2 7 -26 7 -54z m1558 4 l3 -53 -50 0
-51 0 0 56 0 55 48 -3 47 -3 3 -52z m-783 13 c8 -24 6 -31 -13 -46 -27 -23
-60 -15 -74 16 -9 19 -8 28 7 44 27 30 67 23 80 -14z m-1028 -312 c-3 -3 -12
-4 -19 -1 -8 3 -5 6 6 6 11 1 17 -2 13 -5z m435 -1 c-78 -2 -206 -2 -285 0
-78 1 -14 3 143 3 157 0 221 -2 142 -3z m251 0 c-13 -2 -33 -2 -45 0 -13 2 -3
4 22 4 25 0 35 -2 23 -4z m300 0 c-7 -2 -19 -2 -25 0 -7 3 -2 5 12 5 14 0 19
-2 13 -5z m290 0 c-51 -2 -135 -2 -185 0 -51 1 -10 3 92 3 102 0 143 -2 93 -3z"/>
<path d="M3189 6171 c-34 -35 -36 -49 -8 -85 25 -32 77 -36 102 -8 24 26 21
77 -5 102 -30 28 -54 25 -89 -9z m51 -11 c0 -5 -5 -10 -11 -10 -5 0 -7 5 -4
10 3 6 8 10 11 10 2 0 4 -4 4 -10z m0 -45 c0 -14 -4 -25 -10 -25 -11 0 -14 33
-3 43 11 11 13 8 13 -18z"/>
<path d="M2841 6164 c-25 -32 -26 -43 -5 -72 19 -28 74 -30 97 -4 19 21 23 47
6 37 -5 -4 -22 -4 -36 0 -21 5 -24 10 -21 35 6 38 -13 39 -41 4z"/>
<path d="M700 6125 c0 -30 5 -55 10 -55 6 0 10 25 10 55 0 30 -4 55 -10 55 -5
0 -10 -25 -10 -55z"/>
<path d="M863 6173 c-21 -8 -16 -54 7 -60 23 -6 27 -23 5 -23 -8 0 -15 -4 -15
-10 0 -15 16 -12 34 6 19 18 21 65 4 82 -13 13 -16 13 -35 5z m29 -45 c-16
-16 -37 4 -28 28 6 16 8 16 23 1 13 -13 14 -19 5 -29z"/>
<path d="M1013 6173 c-7 -2 -13 -12 -13 -21 0 -13 3 -12 14 4 12 15 17 16 27
7 9 -9 6 -20 -14 -47 -15 -19 -27 -37 -27 -40 0 -3 16 -6 36 -6 21 0 33 4 29
10 -3 6 -15 10 -26 10 -20 0 -20 0 1 22 24 26 26 54 4 62 -9 3 -16 6 -17 5 -1
0 -8 -3 -14 -6z"/>
<path d="M1095 6164 c-17 -18 -19 -47 -5 -75 15 -26 38 -24 51 5 23 49 -13
103 -46 70z m35 -40 c0 -28 -4 -35 -17 -32 -22 4 -29 44 -13 63 18 22 30 9 30
-31z"/>
<path d="M1174 6165 c-11 -8 -14 -15 -8 -15 5 0 15 5 22 12 23 23 26 -21 3
-46 -29 -31 -26 -46 9 -46 17 0 30 5 30 10 0 6 -9 10 -21 10 l-20 0 20 26 c26
33 26 41 2 53 -13 7 -24 6 -37 -4z"/>
<path d="M1263 6173 c-7 -3 -13 -9 -13 -15 0 -6 6 -6 15 2 12 10 16 9 21 -5 4
-10 1 -21 -7 -26 -10 -6 -10 -9 -1 -9 6 0 12 -7 12 -16 0 -11 -6 -15 -20 -11
-11 3 -20 1 -20 -3 0 -14 19 -22 39 -15 15 5 19 15 19 50 -1 43 -15 58 -45 48z"/>
<path d="M580 6129 c0 -36 -2 -41 -20 -36 -11 3 -20 1 -20 -3 0 -15 19 -22 40
-15 16 5 20 15 20 51 0 24 -4 44 -10 44 -5 0 -10 -19 -10 -41z"/>
<path d="M622 6113 c3 -35 6 -38 33 -38 27 0 30 3 33 38 2 21 -1 37 -7 37 -6
0 -11 -13 -11 -30 0 -20 -5 -30 -15 -30 -10 0 -15 10 -15 30 0 17 -5 30 -11
30 -6 0 -9 -16 -7 -37z"/>
<path d="M740 6138 c0 -9 5 -28 11 -42 9 -20 9 -29 -1 -41 -11 -13 -10 -15 2
-10 8 3 21 23 27 43 7 20 15 43 17 50 3 6 1 12 -4 12 -5 0 -13 -10 -16 -22
l-6 -23 -15 25 c-11 18 -14 21 -15 8z"/>
<path d="M931 6064 c0 -11 3 -14 6 -6 3 7 2 16 -1 19 -3 4 -6 -2 -5 -13z"/>
<path d="M530 5700 c0 -48 4 -80 10 -80 6 0 13 8 16 18 18 57 19 57 43 19 12
-20 29 -37 37 -37 20 0 18 10 -11 53 l-26 37 27 35 c24 32 25 35 7 35 -11 0
-31 -16 -46 -37 l-27 -38 0 38 c0 26 -4 37 -15 37 -12 0 -15 -16 -15 -80z"/>
<path d="M707 5762 c-24 -27 -22 -97 3 -122 46 -46 105 -9 105 65 0 23 -6 49
-14 58 -18 23 -74 22 -94 -1z m74 -29 c15 -40 0 -78 -31 -78 -22 0 -25 5 -28
38 -5 64 39 93 59 40z"/>
<path d="M870 5699 c0 -60 3 -80 13 -77 6 3 14 26 17 52 l5 48 30 -51 c43 -74
59 -66 63 32 2 63 0 77 -12 77 -11 0 -16 -14 -18 -52 l-3 -53 -33 53 c-49 76
-62 70 -62 -29z"/>
<path d="M1050 5699 c0 -60 3 -80 13 -77 6 3 13 17 15 31 4 35 16 34 44 -3 12
-16 28 -30 35 -30 18 0 17 5 -13 50 l-27 40 27 35 c25 33 26 35 7 35 -12 0
-30 -15 -46 -37 l-25 -38 0 38 c0 26 -4 37 -15 37 -12 0 -15 -16 -15 -81z"/>
<path d="M1231 5713 c-13 -38 -26 -74 -29 -80 -2 -7 4 -13 13 -13 9 0 19 9 22
20 4 14 14 20 33 20 20 0 31 -6 35 -20 6 -20 35 -28 35 -10 0 6 -12 42 -27 80
-35 90 -51 91 -82 3z m58 -20 c1 -7 -8 -13 -19 -13 -23 0 -23 0 -9 37 10 26
12 27 19 8 5 -11 9 -26 9 -32z"/>
<path d="M1382 5703 c4 -95 25 -114 30 -26 l3 58 34 -58 c18 -32 38 -56 45
-54 6 2 12 35 14 80 2 64 0 77 -13 77 -11 0 -15 -11 -15 -46 0 -52 -11 -51
-40 7 -14 26 -27 39 -41 39 -18 0 -20 -5 -17 -77z"/>
<path d="M1642 5703 l3 -78 31 -3 c47 -5 84 30 84 79 0 52 -27 79 -80 79 l-41
0 3 -77z m69 47 c13 -7 19 -21 19 -43 0 -37 -15 -57 -42 -57 -15 0 -18 8 -18
48 0 62 6 70 41 52z"/>
<path d="M1812 5703 c2 -50 7 -78 16 -81 9 -3 12 17 12 77 0 66 -3 81 -15 81
-13 0 -15 -13 -13 -77z"/>
<path d="M1890 5773 c0 -5 11 -39 25 -78 33 -95 49 -93 85 8 25 70 25 77 10
77 -18 0 -40 -45 -40 -81 0 -40 -20 -26 -36 26 -10 30 -24 55 -31 55 -7 0 -13
-3 -13 -7z"/>
<path d="M2070 5700 c0 -64 3 -80 15 -80 12 0 15 16 15 80 0 64 -3 80 -15 80
-12 0 -15 -16 -15 -80z"/>
<path d="M2160 5761 c-15 -28 -4 -46 41 -66 22 -10 38 -23 36 -29 -5 -14 -57
-20 -57 -7 0 6 -7 11 -15 11 -20 0 -19 -13 3 -33 25 -23 65 -21 86 2 25 28 12
56 -34 75 -22 9 -40 21 -40 26 0 17 31 24 51 12 29 -19 41 -15 29 8 -15 28
-85 28 -100 1z"/>
<path d="M2320 5699 c0 -60 3 -80 13 -77 8 3 13 31 15 81 2 64 0 77 -13 77
-12 0 -15 -15 -15 -81z"/>
<path d="M2417 5762 c-24 -27 -22 -97 3 -122 62 -62 146 44 94 118 -19 28 -74
30 -97 4z m77 -33 c5 -14 6 -38 2 -53 -5 -22 -12 -27 -34 -24 -23 3 -27 8 -30
41 -5 65 42 92 62 36z"/>
<path d="M2580 5699 c0 -60 3 -80 13 -77 6 3 14 26 17 53 l5 49 33 -53 c18
-29 38 -51 45 -49 8 3 13 31 15 81 2 64 0 77 -13 77 -11 0 -15 -12 -15 -52 -1
-52 -1 -53 -18 -32 -9 12 -25 36 -34 53 -9 17 -24 31 -33 31 -12 0 -15 -15
-15 -81z"/>
<path d="M2315 5368 c-27 -14 -45 -38 -45 -60 0 -26 25 -22 38 7 13 29 52 41
81 25 38 -20 28 -71 -28 -137 -26 -32 -58 -67 -70 -77 -11 -11 -21 -28 -21
-38 0 -17 8 -18 97 -16 66 2 98 7 101 16 3 9 -16 12 -72 12 -42 0 -76 3 -76 6
0 3 21 29 46 58 90 98 104 146 59 191 -26 27 -75 33 -110 13z"/>
<path d="M2543 5365 c-33 -23 -48 -79 -34 -126 17 -55 70 -76 123 -48 19 10
20 9 14 -17 -10 -38 -27 -55 -67 -63 -46 -9 -50 -31 -6 -31 54 0 93 38 107
106 15 69 5 126 -27 164 -28 34 -74 40 -110 15z m80 -28 c27 -19 34 -83 12
-107 -37 -41 -95 -15 -95 43 0 61 43 94 83 64z"/>
<path d="M2768 5369 c-27 -15 -24 -75 3 -90 35 -18 69 3 69 44 0 51 -31 71
-72 46z m50 -41 c-2 -15 -10 -23 -23 -23 -13 0 -21 8 -23 23 -3 18 1 22 23 22
22 0 26 -4 23 -22z"/>
<path d="M2943 5120 c0 -30 2 -43 4 -27 6 35 49 39 56 5 2 -13 4 0 4 27 0 28
-2 40 -4 28 -3 -16 -11 -23 -28 -23 -17 0 -25 7 -28 23 -2 12 -4 -3 -4 -33z"/>
<path d="M3090 5135 c10 -12 10 -15 -3 -15 -8 0 -20 -6 -26 -14 -13 -16 0 -29
31 -31 24 -2 25 60 2 69 -14 5 -15 4 -4 -9z m10 -35 c0 -5 -7 -10 -15 -10 -8
0 -15 5 -15 10 0 6 7 10 15 10 8 0 15 -4 15 -10z"/>
<path d="M3252 5138 c-17 -17 -15 -55 5 -62 9 -4 21 -2 27 5 8 8 6 10 -8 7
-10 -1 -21 3 -23 10 -3 7 5 12 21 12 20 0 24 4 19 17 -4 11 -8 12 -11 5 -2 -7
-11 -12 -19 -12 -13 0 -13 3 -3 15 15 18 9 20 -8 3z"/>
<path d="M3167 5111 c-22 -38 -22 -41 8 -41 14 0 25 5 25 10 0 6 -7 10 -15 10
-19 0 -19 9 2 32 9 10 12 18 7 18 -5 0 -17 -13 -27 -29z"/>
<path d="M552 5068 c2 -18 11 -24 36 -26 17 -2 32 0 32 5 -1 19 -29 43 -49 43
-17 0 -22 -5 -19 -22z"/>
<path d="M645 4997 c-4 -8 -17 -18 -31 -21 -29 -8 -31 -31 -5 -46 22 -11 154
-14 164 -3 4 3 -12 15 -36 25 -23 11 -52 29 -64 40 -19 18 -23 19 -28 5z"/>
<path d="M993 4957 c-24 -11 -43 -25 -43 -29 0 -4 37 -8 83 -8 94 0 132 15
108 44 -19 23 -96 20 -148 -7z"/>
<path d="M2579 4703 c-11 -15 -11 -16 1 -5 34 30 41 0 8 -35 -12 -13 -17 -23
-12 -23 15 1 46 50 40 66 -7 19 -21 18 -37 -3z"/>
<path d="M2644 4705 c-3 -8 -4 -20 -1 -27 3 -7 6 -2 6 11 1 17 5 21 17 17 8
-3 12 -2 9 4 -9 15 -25 12 -31 -5z"/>
<path d="M3105 4711 c-3 -6 0 -8 9 -5 8 3 16 -1 19 -10 4 -14 5 -14 3 0 -1 20
-21 30 -31 15z"/>
<path d="M3169 4704 c-9 -11 -9 -18 -2 -25 8 -8 11 -7 10 2 -1 8 3 16 8 19 15
8 19 -41 3 -52 -10 -8 -10 -9 2 -5 20 5 26 63 6 70 -8 3 -20 -1 -27 -9z"/>
<path d="M2395 4680 c-19 -21 -7 -28 13 -8 9 9 15 9 24 0 20 -20 32 -13 13 8
-10 11 -21 20 -25 20 -4 0 -15 -9 -25 -20z"/>
<path d="M2912 4691 c7 -25 35 -36 52 -22 9 8 16 18 16 24 0 5 -8 3 -18 -6
-17 -15 -19 -15 -36 1 -13 12 -17 13 -14 3z"/>
<path d="M2673 4674 c-3 -10 -11 -22 -17 -26 -8 -5 -7 -8 1 -8 14 0 38 39 29
47 -3 3 -9 -3 -13 -13z"/>
<path d="M3110 4655 c-7 -9 -8 -15 -2 -15 5 0 12 7 16 15 3 8 4 15 2 15 -2 0
-9 -7 -16 -15z"/>
<path d="M1043 4303 c7 -10 -38 -37 -185 -110 -26 -13 -50 -29 -55 -36 -5 -8
-9 -4 -14 13 -7 25 -7 25 -8 -3 -1 -17 8 -37 24 -52 23 -24 29 -25 155 -25 99
0 138 4 161 15 31 17 49 49 49 91 0 29 -50 84 -76 84 -10 0 -26 8 -37 18 -11
9 -17 12 -14 5z"/>
<path d="M1781 4247 c-12 -24 -21 -63 -21 -86 0 -90 105 -144 175 -89 34 27
55 74 48 110 -3 15 -21 45 -40 67 -32 38 -38 41 -88 41 -53 0 -53 0 -74 -43z"/>
<path d="M2660 4130 c0 -6 26 -10 59 -10 72 0 91 -6 91 -31 0 -25 -26 -35 -46
-19 -10 9 -18 10 -25 3 -8 -8 -3 -16 16 -29 25 -16 30 -16 54 -3 31 17 39 59
16 83 -12 12 -35 16 -91 16 -43 0 -74 -4 -74 -10z"/>
<path d="M794 3499 c-4 -7 -3 -9 4 -5 6 3 13 -2 15 -11 4 -16 5 -16 6 -1 1 21
-15 32 -25 17z"/>
<path d="M844 3496 c-9 -23 0 -51 16 -51 10 0 15 10 15 29 0 32 -21 47 -31 22z
m26 -21 c0 -14 -4 -25 -10 -25 -5 0 -10 11 -10 25 0 14 5 25 10 25 6 0 10 -11
10 -25z"/>
<path d="M910 3478 c0 -23 3 -29 9 -19 5 8 7 20 4 28 -6 15 23 18 30 3 3 -6 4
-5 3 2 -1 7 -12 14 -24 16 -19 3 -22 -1 -22 -30z"/>
<path d="M970 3501 c0 -6 4 -13 10 -16 6 -3 7 1 4 9 -7 18 -14 21 -14 7z"/>
<path d="M1022 3480 c0 -19 2 -27 5 -17 2 9 2 25 0 35 -3 9 -5 1 -5 -18z"/>
<path d="M1425 3500 c-3 -6 1 -7 9 -4 18 7 21 14 7 14 -6 0 -13 -4 -16 -10z"/>
<path d="M1496 3502 c-2 -4 4 -8 14 -8 10 0 16 4 14 8 -3 4 -9 8 -14 8 -5 0
-11 -4 -14 -8z"/>
<path d="M1544 3496 c-9 -23 0 -51 16 -51 10 0 15 10 15 29 0 32 -21 47 -31
22z m26 -21 c0 -14 -4 -25 -10 -25 -5 0 -10 11 -10 25 0 14 5 25 10 25 6 0 10
-11 10 -25z"/>
<path d="M2155 3499 c-4 -6 -4 -13 -1 -16 3 -4 6 -1 6 5 0 6 8 13 18 15 15 4
15 5 0 6 -9 0 -20 -4 -23 -10z"/>
<path d="M2225 3500 c-3 -6 1 -7 9 -4 18 7 21 14 7 14 -6 0 -13 -4 -16 -10z"/>
<path d="M2274 3496 c-9 -23 0 -51 16 -51 10 0 15 10 15 29 0 32 -21 47 -31
22z m26 -21 c0 -14 -4 -25 -10 -25 -5 0 -10 11 -10 25 0 14 5 25 10 25 6 0 10
-11 10 -25z"/>
<path d="M2366 3491 c4 -15 2 -21 -4 -17 -5 3 -12 0 -15 -7 -3 -7 4 -12 19
-12 28 0 28 2 8 35 -15 25 -15 25 -8 1z"/>
<path d="M2446 3494 c-3 -8 -2 -12 3 -9 5 3 12 -5 14 -17 4 -20 4 -20 6 4 1
31 -14 46 -23 22z"/>
<path d="M3087 3503 c-11 -10 -8 -25 3 -18 6 3 10 2 10 -4 0 -5 -8 -12 -17
-14 -14 -4 -12 -5 5 -6 12 0 22 5 22 12 0 18 -15 38 -23 30z"/>
<path d="M3131 3480 c0 -33 1 -34 10 -11 6 16 6 28 -1 35 -7 7 -10 -1 -9 -24z"/>
<path d="M728 3475 c2 -14 6 -25 8 -25 2 0 4 11 4 25 0 14 -4 25 -9 25 -4 0
-6 -11 -3 -25z"/>
<path d="M1681 3490 c0 -8 6 -23 13 -33 12 -16 14 -16 20 -2 3 9 2 13 -4 10
-6 -4 -14 4 -19 17 -6 13 -10 16 -10 8z"/>
<path d="M1720 3489 c0 -5 5 -7 10 -4 6 3 10 8 10 11 0 2 -4 4 -10 4 -5 0 -10
-5 -10 -11z"/>
<path d="M2403 3473 c-1 -24 -1 -25 7 -8 11 26 12 35 2 35 -4 0 -8 -12 -9 -27z"/>
<path d="M1432 3468 c-18 -18 -14 -28 11 -27 17 1 18 2 4 6 -14 4 -16 8 -6 19
14 17 8 19 -9 2z"/>
<path d="M1617 3466 c-3 -6 6 -11 19 -11 29 0 32 11 5 18 -11 3 -22 0 -24 -7z"/>
<path d="M3165 3469 c-4 -6 -5 -12 -2 -15 2 -3 7 2 10 11 7 17 1 20 -8 4z"/>
<path d="M990 3460 c0 -5 5 -10 11 -10 5 0 7 5 4 10 -3 6 -8 10 -11 10 -2 0
-4 -4 -4 -10z"/>
<path d="M2180 3461 c0 -8 -7 -11 -17 -6 -15 5 -16 4 -5 -6 9 -10 15 -10 24
-1 6 6 9 15 5 19 -4 3 -7 1 -7 -6z"/>
<path d="M1497 3449 c7 -7 15 -10 18 -7 3 3 -2 9 -12 12 -14 6 -15 5 -6 -5z"/>
<path d="M2227 3449 c7 -7 15 -10 18 -7 3 3 -2 9 -12 12 -14 6 -15 5 -6 -5z"/>
<path d="M1055 3099 c-20 -8 -383 -71 -417 -73 -21 0 -21 -1 -8 -27 22 -40 61
-49 209 -49 145 0 181 7 218 42 43 40 41 125 -2 107z"/>
<path d="M1790 3100 c-14 -8 -368 -69 -417 -73 -30 -2 -29 -18 3 -48 24 -23
32 -24 182 -27 182 -3 214 6 245 71 22 43 13 91 -13 77z"/>
<path d="M2470 3089 c-150 -23 -381 -67 -387 -73 -4 -4 5 -19 20 -34 27 -27
30 -27 175 -30 163 -4 210 5 241 45 20 25 30 105 14 102 -5 -1 -33 -5 -63 -10z"/>
<path d="M3086 2812 c-3 -5 1 -9 9 -9 8 0 12 4 9 9 -3 4 -7 8 -9 8 -2 0 -6 -4
-9 -8z"/>
<path d="M843 2778 c0 -18 2 -25 4 -15 3 10 10 16 16 14 7 -3 11 -10 9 -16 -1
-7 3 -9 9 -6 7 5 7 11 1 17 -6 6 -8 18 -5 27 4 14 3 14 -6 1 -9 -12 -13 -12
-19 -2 -6 9 -9 2 -9 -20z"/>
<path d="M1540 2800 c0 -7 -7 -22 -17 -32 -9 -10 -12 -18 -6 -18 13 0 38 48
30 57 -4 3 -7 0 -7 -7z"/>
<path d="M1592 2785 c-17 -37 -14 -45 4 -12 9 16 14 31 11 33 -2 2 -9 -7 -15
-21z"/>
<path d="M2271 2801 c-1 -8 -9 -24 -18 -35 -16 -20 -16 -20 6 0 13 12 21 28
18 35 -4 11 -6 11 -6 0z"/>
<path d="M3045 2780 c-9 -16 -13 -30 -11 -30 3 0 12 14 21 30 9 17 13 30 11
30 -3 0 -12 -13 -21 -30z"/>
<path d="M2979 2763 c-13 -16 -12 -17 4 -4 16 13 21 21 13 21 -2 0 -10 -8 -17
-17z"/>
<path d="M510 2195 c0 -25 5 -45 10 -45 6 0 10 15 10 33 l0 32 21 -32 c29 -45
39 -41 38 15 -2 44 -2 45 -8 12 l-6 -35 -20 33 c-28 46 -45 41 -45 -13z"/>
<path d="M758 2228 c-6 -19 6 -71 17 -75 9 -3 11 25 6 75 0 6 -5 12 -10 12 -5
0 -11 -6 -13 -12z"/>
<path d="M850 2221 c0 -11 9 -21 21 -24 27 -7 19 -33 -10 -30 -13 2 -20 -1
-16 -7 3 -6 17 -10 31 -10 19 0 24 5 24 26 0 17 -6 28 -20 31 -27 7 -25 21 3
26 19 4 18 4 -5 6 -21 1 -28 -4 -28 -18z"/>
<path d="M960 2194 c0 -43 1 -45 26 -42 34 4 49 27 40 61 -5 22 -12 27 -36 27
-29 0 -30 -2 -30 -46z m54 20 c8 -20 -11 -54 -29 -54 -10 0 -15 11 -15 35 0
28 4 35 19 35 10 0 22 -7 25 -16z"/>
<path d="M614 2206 c-12 -30 0 -51 31 -53 18 -1 22 1 10 4 -34 9 -41 23 -11
23 21 0 27 4 24 18 -4 22 -46 29 -54 8z m41 -6 c3 -5 -1 -10 -9 -10 -9 0 -16
5 -16 10 0 6 4 10 9 10 6 0 13 -4 16 -10z"/>
<path d="M694 2185 c0 -27 3 -32 13 -23 9 7 13 7 13 -1 0 -6 3 -11 8 -11 4 0
7 16 8 35 0 25 -3 32 -11 25 -7 -6 -15 -6 -21 0 -7 7 -10 -2 -10 -25z"/>
<path d="M1054 2209 c-5 -9 -2 -10 9 -6 9 3 19 2 22 -3 4 -6 -3 -10 -14 -10
-14 0 -21 -6 -21 -20 0 -15 7 -20 26 -20 23 0 25 3 22 32 -3 34 -29 50 -44 27z
m36 -39 c0 -5 -7 -10 -15 -10 -8 0 -15 5 -15 10 0 6 7 10 15 10 8 0 15 -4 15
-10z"/>
<path d="M1120 2211 c0 -5 5 -22 10 -37 7 -19 7 -30 -1 -40 -9 -11 -8 -14 4
-14 9 0 21 18 31 47 19 55 19 53 7 53 -5 0 -12 -10 -15 -22 l-7 -23 -9 23
c-10 22 -20 29 -20 13z"/>
<path d="M1194 2209 c-4 -7 4 -20 17 -31 l24 -20 -22 5 c-13 3 -23 1 -23 -5 0
-13 53 -6 57 9 2 6 -5 14 -16 18 -12 3 -21 11 -21 16 0 6 9 7 21 4 15 -5 19
-4 15 4 -9 14 -43 14 -52 0z"/>
<path d="M666 1842 c-8 -13 5 -82 15 -82 12 0 11 77 0 85 -5 3 -12 1 -15 -3z"/>
<path d="M880 1835 c0 -8 -9 -15 -20 -15 -16 0 -20 -7 -20 -30 0 -25 4 -30 25
-30 23 0 25 4 25 45 0 25 -2 45 -5 45 -3 0 -5 -7 -5 -15z m-5 -43 c0 -18 -20
-15 -23 4 -3 10 1 15 10 12 7 -3 13 -10 13 -16z"/>
<path d="M2777 1843 c-13 -13 -7 -25 7 -14 17 14 31 -2 20 -21 -5 -10 -4 -10
6 -1 7 6 10 19 7 27 -7 16 -28 21 -40 9z"/>
<path d="M2844 1836 c-3 -8 -4 -27 -2 -43 2 -20 8 -28 23 -28 16 0 20 7 20 30
1 46 -28 75 -41 41z m28 -11 c0 -5 -5 -11 -11 -13 -6 -2 -11 4 -11 13 0 9 5
15 11 13 6 -2 11 -8 11 -13z m6 -43 c2 -7 -3 -12 -12 -12 -9 0 -16 7 -16 16 0
17 22 14 28 -4z"/>
<path d="M2910 1841 c0 -6 4 -12 8 -15 5 -3 9 1 9 9 0 8 -4 15 -9 15 -4 0 -8
-4 -8 -9z"/>
<path d="M601 1798 c1 -38 2 -40 8 -14 l6 30 13 -29 c11 -23 15 -26 23 -14 5
7 8 21 8 29 0 10 -3 9 -8 -4 -6 -17 -9 -15 -20 12 -19 44 -31 40 -30 -10z"/>
<path d="M2315 1830 c-3 -6 1 -7 9 -4 21 8 20 -14 -1 -38 -9 -10 -12 -18 -7
-18 13 0 45 56 37 64 -10 9 -31 7 -38 -4z"/>
<path d="M2383 1833 c11 -3 16 -10 13 -19 -16 -40 -19 -49 -9 -39 5 6 14 22
21 38 11 26 10 27 -16 26 -18 -1 -21 -3 -9 -6z"/>
<path d="M2430 1831 c0 -6 4 -13 10 -16 6 -3 7 1 4 9 -7 18 -14 21 -14 7z"/>
<path d="M3094 1820 c0 -13 4 -16 10 -10 7 7 7 13 0 20 -6 6 -10 3 -10 -10z"/>
<path d="M704 1805 c-8 -21 2 -45 19 -45 20 0 40 27 33 45 -7 19 -45 20 -52 0z
m36 -15 c0 -11 -4 -20 -9 -20 -11 0 -22 26 -14 34 12 12 23 5 23 -14z"/>
<path d="M771 1788 c1 -30 2 -30 8 -9 9 35 29 37 34 4 4 -27 4 -27 6 5 1 28
-2 32 -24 32 -22 0 -25 -4 -24 -32z"/>
<path d="M924 1811 c19 -7 19 -8 -3 -14 -30 -7 -22 -31 11 -35 22 -3 24 0 20
27 -3 24 -9 31 -26 30 -20 0 -20 -1 -2 -8z m16 -25 c0 -3 -4 -8 -10 -11 -5 -3
-10 -1 -10 4 0 6 5 11 10 11 6 0 10 -2 10 -4z"/>
<path d="M974 1778 c1 -37 4 -45 13 -35 7 7 15 28 18 47 6 31 5 32 -6 15 -12
-19 -12 -19 -20 0 -4 13 -6 2 -5 -27z"/>
<path d="M2774 1769 c-3 -5 6 -9 20 -9 31 0 34 6 6 13 -11 3 -23 1 -26 -4z"/>
<path d="M3073 1763 c9 -2 23 -2 30 0 6 3 -1 5 -18 5 -16 0 -22 -2 -12 -5z"/>
<path d="M900 1215 c0 -8 -9 -15 -21 -15 -30 0 -23 -54 9 -58 20 -3 22 1 22
42 0 25 -2 46 -5 46 -3 0 -5 -7 -5 -15z m-2 -42 c-4 -22 -22 -20 -26 1 -2 10
3 16 13 16 10 0 15 -7 13 -17z"/>
<path d="M607 1212 c6 -4 13 -23 16 -42 l4 -35 1 37 c2 25 7 38 20 41 9 3 1 5
-18 6 -19 0 -30 -3 -23 -7z"/>
<path d="M2315 1210 c-3 -6 1 -7 9 -4 21 8 20 -14 -1 -38 -15 -17 -15 -18 8
-17 13 0 18 3 11 6 -10 4 -10 9 3 23 9 10 14 24 10 29 -8 14 -32 14 -40 1z"/>
<path d="M2383 1213 c11 -3 16 -10 13 -19 -16 -40 -19 -49 -9 -39 5 6 14 22
21 38 11 26 10 27 -16 26 -18 -1 -21 -3 -9 -6z"/>
<path d="M2770 1209 c0 -5 5 -7 10 -4 6 3 10 8 10 11 0 2 -4 4 -10 4 -5 0 -10
-5 -10 -11z"/>
<path d="M2805 1209 c4 -5 0 -18 -7 -27 -30 -35 -30 -42 -1 -41 17 1 21 3 10
6 -15 4 -16 6 -2 26 17 25 20 47 4 47 -5 0 -7 -5 -4 -11z"/>
<path d="M2843 1183 c2 -31 6 -38 22 -38 28 0 33 35 5 42 -13 3 -19 11 -16 19
3 8 1 14 -4 14 -5 0 -8 -17 -7 -37z m35 -21 c2 -7 -3 -12 -12 -12 -9 0 -16 7
-16 16 0 17 22 14 28 -4z"/>
<path d="M671 1173 c-1 -29 2 -33 24 -33 21 0 25 5 25 30 0 17 -4 30 -10 30
-5 0 -10 -11 -10 -25 0 -34 -18 -32 -23 3 -4 25 -4 25 -6 -5z"/>
<path d="M735 1190 c-12 -19 6 -50 28 -49 17 1 18 2 5 6 -24 6 -23 23 2 23 13
0 18 5 14 15 -7 17 -40 20 -49 5z"/>
<path d="M800 1185 c0 -8 5 -15 11 -15 5 0 7 5 3 12 -5 8 -2 9 9 5 10 -3 17
-2 17 3 0 6 -9 10 -20 10 -11 0 -20 -7 -20 -15z"/>
<path d="M932 1170 c0 -23 4 -30 19 -30 14 0 19 7 19 30 0 23 -5 30 -18 30
-14 0 -19 -8 -20 -30z m28 -10 c0 -5 -4 -10 -10 -10 -5 0 -10 5 -10 10 0 6 5
10 10 10 6 0 10 -4 10 -10z"/>
<path d="M990 1190 c0 -8 4 -22 10 -30 5 -9 5 -19 -2 -27 -7 -9 -7 -13 1 -13
6 0 18 16 26 36 18 43 18 44 5 44 -5 0 -10 -8 -10 -17 0 -15 -2 -14 -15 3 -11
14 -14 15 -15 4z"/>
<path d="M3079 1173 c-13 -16 -12 -17 4 -4 16 13 21 21 13 21 -2 0 -10 -8 -17
-17z"/>
<path d="M830 1160 c0 -7 -7 -10 -15 -6 -8 3 -15 1 -15 -4 0 -13 37 -13 45 -1
3 5 1 12 -5 16 -5 3 -10 1 -10 -5z"/>
<path d="M3073 1143 c9 -2 23 -2 30 0 6 3 -1 5 -18 5 -16 0 -22 -2 -12 -5z"/>
</g>
</svg>
