<?xml version="1.0" standalone="no"?>
<!DOCTYPE svg PUBLIC "-//W3C//DTD SVG 20010904//EN"
 "http://www.w3.org/TR/2001/REC-SVG-20010904/DTD/svg10.dtd">
<svg version="1.0" xmlns="http://www.w3.org/2000/svg"
 width="345.000000pt" height="724.000000pt" viewBox="0 0 345.000000 724.000000"
 preserveAspectRatio="xMidYMid meet">

<g transform="translate(0.000000,724.000000) scale(0.100000,-0.100000)"
fill="#000000" stroke="none">
<path d="M490 7149 c-181 -25 -318 -160 -341 -336 -11 -88 -11 -6207 0 -6334
11 -120 43 -197 109 -262 50 -49 168 -109 237 -121 63 -11 2116 -24 2360 -15
244 9 296 14 307 32 4 7 8 8 8 4 0 -17 116 57 158 100 77 80 94 128 105 293
14 223 13 1004 -2 1400 -16 419 -11 1952 8 2411 9 221 9 444 0 980 -7 382 -15
894 -18 1139 -6 427 -7 447 -27 490 -30 64 -96 134 -159 170 -106 61 -92 60
-1450 59 -676 -1 -1259 -6 -1295 -10z m1903 -6 c-325 -2 -861 -2 -1190 0 -329
1 -63 2 592 2 655 0 924 -1 598 -2z m680 -10 c-7 -2 -19 -2 -25 0 -7 3 -2 5
12 5 14 0 19 -2 13 -5z m-2593 -42 c0 -5 -25 -23 -55 -40 -107 -61 -173 -153
-200 -280 -12 -58 -15 -163 -17 -514 l-1 -442 -10 410 c-11 487 -5 594 43 692
37 74 101 134 174 162 59 23 66 24 66 12z m2670 -362 c67 -31 112 -75 148
-143 l27 -51 3 -2953 2 -2952 -1540 0 -1540 0 0 2928 c0 3205 -4 2978 57 3070
38 56 76 83 153 109 l65 23 1285 -3 1285 -2 55 -26z m-2983 -1581 c-1 -150 -2
-28 -2 272 0 300 1 422 2 273 2 -150 2 -396 0 -545z m0 -590 c-2 -35 -3 -9 -3
57 0 66 1 94 3 63 2 -32 2 -86 0 -120z m0 -1200 c-1 -106 -2 -20 -2 192 0 212
1 298 2 193 2 -106 2 -280 0 -385z m0 -676 c-1 -81 -3 -12 -3 153 0 165 2 231
3 147 2 -84 2 -219 0 -300z m0 -1104 c-1 -150 -2 -30 -2 267 0 297 1 420 2
273 2 -147 2 -390 0 -540z m0 -810 c-3 -8 -6 -5 -6 6 -1 11 2 17 5 13 3 -3 4
-12 1 -19z m0 -50 c-3 -8 -6 -5 -6 6 -1 11 2 17 5 13 3 -3 4 -12 1 -19z m873
-268 c0 -28 -5 -50 -11 -50 -12 0 -89 43 -89 50 0 8 73 49 88 50 8 0 12 -16
12 -50z m784 34 c30 -29 9 -84 -31 -84 -21 0 -53 29 -53 48 0 22 30 52 51 52
10 0 25 -7 33 -16z m816 -34 l0 -50 -52 0 -53 0 3 50 4 50 49 0 49 0 0 -50z
m-538 -307 c-266 -2 -698 -2 -960 0 -262 1 -45 2 483 2 528 0 743 -1 477 -2z"/>
<path d="M3102 6394 c-16 -11 -22 -25 -22 -54 0 -29 6 -43 22 -54 32 -23 74
-20 98 6 27 29 25 64 -5 93 -28 29 -61 32 -93 9z m58 -24 c0 -5 -4 -10 -10
-10 -5 0 -10 5 -10 10 0 6 5 10 10 10 6 0 10 -4 10 -10z m0 -45 c0 -14 -4 -25
-10 -25 -5 0 -10 11 -10 25 0 14 5 25 10 25 6 0 10 -11 10 -25z"/>
<path d="M553 6340 c0 -36 2 -50 4 -32 2 17 2 47 0 65 -2 17 -4 3 -4 -33z"/>
<path d="M2746 6385 c-43 -43 -20 -105 39 -105 34 0 65 21 65 45 0 8 -7 11
-20 8 -28 -7 -53 16 -47 44 5 27 -14 31 -37 8z"/>
<path d="M430 6344 c0 -45 -1 -46 -27 -39 -26 6 -27 5 -11 -11 29 -29 48 -11
48 46 0 27 -2 50 -5 50 -3 0 -5 -21 -5 -46z"/>
<path d="M704 6376 c-10 -26 1 -50 26 -57 l25 -7 -22 -7 c-23 -7 -32 -25 -14
-25 30 0 50 54 35 94 -8 20 -43 21 -50 2z m43 -12 c8 -21 -13 -42 -28 -27 -13
13 -5 43 11 43 6 0 13 -7 17 -16z"/>
<path d="M855 6379 c-11 -17 3 -23 20 -9 12 10 16 9 21 -4 4 -11 -3 -27 -20
-45 -34 -36 -33 -41 9 -41 19 0 35 5 35 10 0 6 -9 10 -20 10 -20 0 -20 0 1 29
12 16 19 37 16 45 -7 18 -52 22 -62 5z"/>
<path d="M941 6368 c-10 -28 -4 -70 12 -80 36 -23 70 30 49 77 -15 32 -50 33
-61 3z m44 -28 c0 -35 -21 -53 -31 -26 -9 23 5 68 19 63 7 -2 12 -19 12 -37z"/>
<path d="M1026 6375 c-6 -18 5 -20 22 -3 9 9 13 7 18 -6 4 -11 -2 -27 -20 -45
-14 -15 -23 -30 -19 -34 10 -11 63 -8 63 3 0 6 -9 10 -20 10 -21 0 -21 0 0 28
12 17 18 35 14 45 -8 21 -50 22 -58 2z"/>
<path d="M1117 6384 c-14 -14 -7 -26 8 -14 15 12 35 6 35 -11 0 -5 -7 -9 -15
-9 -8 0 -15 -4 -15 -9 0 -5 7 -11 15 -15 25 -9 17 -29 -10 -24 -14 3 -25 2
-25 -3 0 -14 19 -21 40 -14 16 5 19 14 17 53 -2 39 -6 48 -22 50 -12 2 -24 0
-28 -4z"/>
<path d="M474 6325 c1 -36 3 -40 29 -41 25 -1 27 1 26 40 -1 37 -2 38 -8 11
-9 -43 -38 -45 -44 -3 -4 28 -4 27 -3 -7z"/>
<path d="M595 6324 c12 -28 12 -40 4 -51 -7 -7 -10 -16 -7 -18 8 -8 23 15 41
63 9 23 13 42 8 42 -5 0 -13 -10 -17 -22 l-7 -23 -10 23 c-17 37 -28 24 -12
-14z"/>
<path d="M785 6279 c-4 -6 -5 -12 -2 -15 2 -3 7 2 10 11 7 17 1 20 -8 4z"/>
<path d="M670 6020 c25 -8 25 -8 -7 -15 -37 -8 -41 -23 -15 -55 16 -20 26 -22
169 -23 150 -2 153 -2 177 23 14 14 28 37 31 53 l7 27 -193 -1 c-110 -1 -183
-4 -169 -9z"/>
<path d="M1630 5999 c0 -62 56 -119 118 -119 62 0 129 77 114 132 -4 16 -17
18 -118 18 l-114 0 0 -31z"/>
<path d="M2567 5973 c-18 -17 -2 -23 62 -23 50 0 72 -4 81 -16 11 -12 10 -18
-3 -31 -14 -15 -20 -15 -42 -3 -34 18 -46 3 -16 -21 28 -23 40 -24 69 -3 14
10 22 26 22 44 0 42 -32 60 -106 60 -33 0 -64 -3 -67 -7z"/>
<path d="M582 5290 c0 -19 2 -27 5 -17 2 9 2 25 0 35 -3 9 -5 1 -5 -18z"/>
<path d="M656 5303 c-6 -14 -5 -15 5 -6 7 7 10 15 7 18 -3 3 -9 -2 -12 -12z"/>
<path d="M692 5295 c0 -16 2 -22 5 -12 2 9 2 23 0 30 -3 6 -5 -1 -5 -18z"/>
<path d="M718 5293 c5 -21 7 -23 10 -9 2 10 0 22 -6 28 -6 6 -7 0 -4 -19z"/>
<path d="M762 5290 c0 -19 2 -27 5 -17 2 9 2 25 0 35 -3 9 -5 1 -5 -18z"/>
<path d="M801 5304 c0 -11 3 -14 6 -6 3 7 2 16 -1 19 -3 4 -6 -2 -5 -13z"/>
<path d="M820 5290 c0 -16 2 -30 4 -30 2 0 6 14 8 30 3 17 1 30 -4 30 -4 0 -8
-13 -8 -30z"/>
<path d="M1307 5301 c-4 -17 -3 -21 5 -13 5 5 8 16 6 23 -3 8 -7 3 -11 -10z"/>
<path d="M1412 5295 c0 -16 2 -22 5 -12 2 9 2 23 0 30 -3 6 -5 -1 -5 -18z"/>
<path d="M1552 5290 c0 -19 2 -27 5 -17 2 9 2 25 0 35 -3 9 -5 1 -5 -18z"/>
<path d="M1585 5290 c-9 -16 -13 -30 -11 -30 3 0 12 14 21 30 9 17 13 30 11
30 -3 0 -12 -13 -21 -30z"/>
<path d="M2126 5303 c-6 -14 -5 -15 5 -6 7 7 10 15 7 18 -3 3 -9 -2 -12 -12z"/>
<path d="M2348 5290 c2 -16 6 -30 8 -30 2 0 4 14 4 30 0 17 -4 30 -8 30 -5 0
-7 -13 -4 -30z"/>
<path d="M2783 5293 c0 -18 2 -21 8 -12 8 12 11 11 19 -1 5 -8 10 -10 10 -5 0
6 -8 18 -19 27 -17 15 -18 14 -18 -9z"/>
<path d="M2874 5307 c-8 -9 -7 -16 1 -24 10 -9 13 -6 13 13 0 13 -1 24 -2 24
0 -1 -6 -6 -12 -13z"/>
<path d="M2903 5305 c-3 -9 -3 -18 -1 -21 3 -3 8 4 11 16 6 23 -1 27 -10 5z"/>
<path d="M2932 5295 c0 -16 2 -22 5 -12 2 9 2 23 0 30 -3 6 -5 -1 -5 -18z"/>
<path d="M2990 5309 c0 -5 5 -7 10 -4 6 3 10 8 10 11 0 2 -4 4 -10 4 -5 0 -10
-5 -10 -11z"/>
<path d="M3040 5291 c0 -17 2 -31 4 -31 8 0 13 51 5 56 -5 3 -9 -9 -9 -25z"/>
<path d="M3098 5290 c2 -16 6 -30 8 -30 2 0 4 14 4 30 0 17 -4 30 -8 30 -5 0
-7 -13 -4 -30z"/>
<path d="M1442 5290 c0 -14 2 -19 5 -12 2 6 2 18 0 25 -3 6 -5 1 -5 -13z"/>
<path d="M2192 5290 c0 -14 2 -19 5 -12 2 6 2 18 0 25 -3 6 -5 1 -5 -13z"/>
<path d="M1486 5285 c-9 -26 -7 -32 5 -12 6 10 9 21 6 23 -2 3 -7 -2 -11 -11z"/>
<path d="M2260 5291 c0 -6 4 -13 10 -16 6 -3 7 1 4 9 -7 18 -14 21 -14 7z"/>
<path d="M3010 5286 c0 -8 4 -17 9 -20 5 -4 7 3 4 14 -6 23 -13 26 -13 6z"/>
<path d="M851 5281 c-8 -5 -9 -11 -3 -15 5 -3 12 1 16 9 6 17 6 18 -13 6z"/>
<path d="M2235 5279 c-4 -6 -5 -12 -2 -15 2 -3 7 2 10 11 7 17 1 20 -8 4z"/>
<path d="M2291 5274 c0 -11 3 -14 6 -6 3 7 2 16 -1 19 -3 4 -6 -2 -5 -13z"/>
<path d="M2316 5277 c3 -10 9 -15 12 -12 3 3 0 11 -7 18 -10 9 -11 8 -5 -6z"/>
<path d="M1298 5263 c7 -3 16 -2 19 1 4 3 -2 6 -13 5 -11 0 -14 -3 -6 -6z"/>
<path d="M705 4869 c-121 -21 -227 -40 -235 -42 -11 -2 -7 -11 17 -35 l31 -32
175 0 c164 0 176 1 202 22 33 25 58 82 50 109 -4 10 -9 19 -13 18 -4 -1 -106
-18 -227 -40z"/>
<path d="M1655 4904 c-25 -9 -429 -73 -436 -68 -21 13 -7 -20 20 -47 l29 -29
174 0 174 0 33 28 c26 22 34 37 38 75 6 47 0 54 -32 41z"/>
<path d="M2315 4890 c-55 -10 -157 -28 -227 -41 -71 -12 -128 -26 -128 -31 0
-5 12 -20 26 -33 26 -25 30 -25 198 -25 199 0 226 9 247 79 11 38 8 72 -8 70
-4 0 -53 -9 -108 -19z"/>
<path d="M655 4595 c0 -13 3 -21 8 -18 4 2 7 10 7 18 0 8 -3 16 -7 18 -5 3 -8
-5 -8 -18z"/>
<path d="M716 4606 c3 -9 2 -16 -4 -16 -6 0 -12 6 -15 13 -2 6 -4 -4 -4 -23 0
-19 2 -27 4 -17 3 10 10 16 16 14 7 -3 11 -10 9 -16 -1 -7 3 -9 9 -6 7 5 7 11
1 17 -6 6 -8 16 -6 23 3 7 1 16 -5 20 -7 3 -8 0 -5 -9z"/>
<path d="M1385 4610 c-3 -6 1 -7 9 -4 21 8 20 -14 -1 -38 -9 -10 -12 -18 -6
-18 14 0 37 46 29 59 -9 14 -23 14 -31 1z"/>
<path d="M1453 4613 c11 -3 16 -10 13 -19 -15 -37 -16 -47 -2 -24 22 35 20 50
-6 49 -19 -1 -19 -2 -5 -6z"/>
<path d="M2130 4610 c-9 -6 -10 -10 -3 -10 6 0 15 5 18 10 8 12 4 12 -15 0z"/>
<path d="M2197 4612 c17 -5 20 -11 13 -22 -5 -8 -10 -19 -9 -25 0 -11 28 35
29 48 0 4 -12 7 -27 6 -25 -1 -26 -2 -6 -7z"/>
<path d="M2253 4605 c0 -8 4 -12 9 -9 5 3 6 10 3 15 -9 13 -12 11 -12 -6z"/>
<path d="M2898 4608 c9 -9 9 -15 -1 -27 -11 -14 -10 -14 6 -2 13 10 15 17 6
27 -6 8 -14 14 -17 14 -3 0 -1 -5 6 -12z"/>
<path d="M2938 4613 c6 -2 18 -2 25 0 6 3 1 5 -13 5 -14 0 -19 -2 -12 -5z"/>
<path d="M2951 4573 c-10 -26 -10 -27 4 -9 8 11 15 23 15 28 0 15 -7 8 -19
-19z"/>
<path d="M2139 4563 c-13 -16 -12 -17 4 -4 9 7 17 15 17 17 0 8 -8 3 -21 -13z"/>
<path d="M357 4033 c-11 -10 -8 -103 3 -103 6 0 10 14 10 30 0 17 4 30 9 30 5
0 14 -13 21 -30 19 -46 30 -36 29 28 -2 53 -2 55 -8 17 l-7 -40 -23 38 c-25
40 -25 40 -34 30z"/>
<path d="M698 4010 c-4 -26 -1 -30 19 -30 13 0 23 -6 23 -13 0 -21 -11 -27
-31 -16 -15 8 -17 6 -13 -6 4 -9 16 -15 28 -13 30 4 36 57 7 65 -27 7 -27 23
-1 23 11 0 20 5 20 10 0 6 -11 10 -24 10 -19 0 -25 -6 -28 -30z"/>
<path d="M817 4033 c-4 -3 -7 -28 -7 -55 0 -43 2 -48 23 -48 32 0 47 18 47 57
0 27 -5 35 -26 43 -30 12 -29 12 -37 3z m46 -35 c13 -20 2 -48 -18 -48 -11 0
-15 10 -15 36 0 37 14 42 33 12z"/>
<path d="M607 4017 c-7 -19 6 -80 18 -84 6 -2 9 17 7 47 -4 48 -14 64 -25 37z"/>
<path d="M453 3984 c-3 -9 -2 -24 4 -33 12 -19 53 -28 53 -11 0 6 -4 8 -10 5
-5 -3 -16 -3 -22 1 -9 6 -5 10 12 14 34 8 32 34 -3 38 -18 2 -29 -2 -34 -14z
m44 0 c-3 -3 -12 -4 -19 -1 -8 3 -5 6 6 6 11 1 17 -2 13 -5z"/>
<path d="M541 3983 c9 -9 8 -17 -1 -28 -7 -9 -10 -19 -6 -22 4 -4 11 -1 17 7
8 13 10 13 18 0 6 -8 13 -11 17 -7 4 3 1 13 -6 22 -9 11 -10 19 -1 28 8 11 5
14 -19 14 -24 0 -27 -3 -19 -14z"/>
<path d="M920 3991 l25 -7 -23 -8 c-32 -11 -25 -40 11 -44 25 -3 27 -1 27 32
0 34 -2 36 -32 35 -31 -1 -31 -1 -8 -8z m20 -41 c0 -5 -4 -10 -10 -10 -5 0
-10 5 -10 10 0 6 5 10 10 10 6 0 10 -4 10 -10z"/>
<path d="M980 3991 c0 -5 5 -22 10 -37 8 -19 7 -31 -2 -42 -11 -13 -10 -14 2
-10 8 2 22 26 31 51 17 48 11 65 -9 25 -8 -18 -11 -19 -11 -6 -1 18 -21 36
-21 19z"/>
<path d="M1050 3986 c0 -8 9 -18 20 -21 11 -3 20 -11 20 -16 0 -13 -14 -11
-29 4 -11 10 -13 9 -9 -3 6 -19 37 -25 51 -11 7 7 3 18 -17 36 -31 29 -36 30
-36 11z"/>
<path d="M1085 3990 c3 -5 11 -10 16 -10 6 0 7 5 4 10 -3 6 -11 10 -16 10 -6
0 -7 -4 -4 -10z"/>
<path d="M730 3615 c0 -8 -7 -15 -15 -15 -17 0 -34 -29 -28 -47 3 -7 16 -13
29 -13 22 0 24 4 24 45 0 25 -2 45 -5 45 -3 0 -5 -7 -5 -15z m-8 -57 c-15 -15
-26 -4 -18 18 5 13 9 15 18 6 9 -9 9 -15 0 -24z"/>
<path d="M440 3580 c0 -48 15 -53 24 -9 9 45 8 49 -9 49 -11 0 -15 -11 -15
-40z"/>
<path d="M500 3589 c-10 -22 -15 -27 -21 -17 -10 15 -12 6 -3 -16 9 -24 21
-19 30 12 l7 27 7 -30 c7 -28 8 -27 9 13 1 49 -11 55 -29 11z"/>
<path d="M2205 3610 c-3 -6 1 -7 9 -4 21 8 21 -19 1 -36 -23 -19 -18 -30 13
-29 17 1 20 3 9 6 -15 4 -16 7 -2 26 11 15 12 24 3 34 -13 15 -25 17 -33 3z"/>
<path d="M2268 3613 c24 -5 25 -11 7 -58 -14 -35 4 -11 20 28 l15 37 -32 -1
c-25 -1 -28 -3 -10 -6z"/>
<path d="M2676 3611 c-4 -5 3 -7 14 -4 27 7 26 -14 -2 -44 l-21 -23 29 1 c23
0 25 2 11 8 -17 6 -17 8 -3 20 23 19 21 51 -3 51 -11 0 -22 -4 -25 -9z"/>
<path d="M2749 3618 c-6 -16 -6 -78 0 -78 5 0 8 6 7 13 0 6 4 12 9 12 6 0 9
-6 9 -12 -1 -7 2 -13 6 -13 5 0 8 18 8 40 0 32 -4 40 -19 40 -11 0 -19 -1 -20
-2z m31 -18 c0 -5 -7 -10 -15 -10 -8 0 -15 5 -15 10 0 6 7 10 15 10 8 0 15 -4
15 -10z"/>
<path d="M2906 3605 c-9 -26 -7 -32 5 -12 6 10 9 21 6 23 -2 3 -7 -2 -11 -11z"/>
<path d="M2988 3613 c7 -3 16 -2 19 1 4 3 -2 6 -13 5 -11 0 -14 -3 -6 -6z"/>
<path d="M3053 3613 c9 -2 23 -2 30 0 6 3 -1 5 -18 5 -16 0 -22 -2 -12 -5z"/>
<path d="M557 3593 c-4 -3 -7 -17 -7 -30 0 -18 6 -23 24 -23 13 0 27 7 30 16
11 28 -27 57 -47 37z m33 -29 c0 -8 -7 -14 -15 -14 -15 0 -21 21 -9 33 10 9
24 -2 24 -19z"/>
<path d="M621 3568 c1 -28 2 -29 7 -10 4 13 12 23 17 23 6 0 13 -10 17 -23 6
-19 7 -18 5 7 -2 23 -7 31 -24 33 -20 3 -23 -1 -22 -30z"/>
<path d="M765 3590 c-3 -6 1 -7 9 -4 9 3 16 2 16 -4 0 -5 -9 -12 -21 -15 -26
-7 -15 -27 15 -27 19 0 22 4 18 30 -4 29 -25 40 -37 20z"/>
<path d="M821 3590 c0 -8 4 -24 8 -35 5 -11 4 -25 -1 -32 -7 -9 -7 -13 1 -13
13 0 43 69 37 84 -2 6 -7 3 -11 -7 -7 -17 -8 -17 -21 0 -11 14 -13 15 -13 3z"/>
<path d="M2997 3583 c-4 -3 -7 -11 -7 -17 0 -6 5 -5 12 2 6 6 9 14 7 17 -3 3
-9 2 -12 -2z"/>
<path d="M2886 3555 c-9 -26 -7 -32 5 -12 6 10 9 21 6 23 -2 3 -7 -2 -11 -11z"/>
<path d="M440 2980 c0 -5 5 -10 10 -10 6 0 10 -16 10 -35 0 -19 5 -35 10 -35
6 0 10 16 10 35 0 24 5 35 15 35 8 0 15 5 15 10 0 6 -16 10 -35 10 -19 0 -35
-4 -35 -10z"/>
<path d="M750 2976 c0 -7 -9 -16 -21 -19 -29 -8 -22 -51 9 -55 20 -3 22 1 22
42 0 25 -2 46 -5 46 -3 0 -5 -6 -5 -14z m-2 -43 c-4 -22 -22 -20 -26 1 -2 10
3 16 13 16 10 0 15 -7 13 -17z"/>
<path d="M2683 2983 c-7 -2 -13 -10 -13 -16 0 -8 4 -7 12 1 32 32 38 -2 7 -42
l-20 -26 33 1 c23 1 26 3 11 6 -21 4 -22 6 -7 29 24 35 11 61 -23 47z"/>
<path d="M2746 2978 c-3 -7 -4 -26 -3 -43 2 -23 7 -31 24 -33 21 -3 23 0 20
40 -1 32 -7 44 -20 46 -9 2 -19 -2 -21 -10z m34 -19 c0 -5 -7 -9 -15 -9 -15 0
-20 12 -9 23 8 8 24 -1 24 -14z m0 -34 c0 -8 -7 -15 -15 -15 -8 0 -15 7 -15
15 0 8 7 15 15 15 8 0 15 -7 15 -15z"/>
<path d="M2817 2983 c-10 -9 -9 -23 1 -23 5 0 9 7 9 15 0 17 -1 18 -10 8z"/>
<path d="M2976 2982 c-2 -4 4 -8 14 -8 10 0 16 4 14 8 -3 4 -9 8 -14 8 -5 0
-11 -4 -14 -8z"/>
<path d="M3040 2986 c0 -2 11 -6 25 -8 14 -3 25 -1 25 3 0 5 -11 9 -25 9 -14
0 -25 -2 -25 -4z"/>
<path d="M2200 2970 c0 -5 7 -7 15 -4 20 8 19 -15 -2 -38 -15 -17 -15 -18 8
-17 13 0 18 3 12 6 -10 3 -9 10 2 27 8 12 12 26 8 29 -10 11 -43 8 -43 -3z"/>
<path d="M2273 2973 c11 -3 16 -10 13 -19 -16 -40 -19 -49 -9 -39 5 6 14 22
21 38 11 26 10 27 -16 26 -18 -1 -21 -3 -9 -6z"/>
<path d="M2902 2955 c-17 -37 -14 -45 4 -12 9 16 14 31 11 33 -2 2 -9 -7 -15
-21z"/>
<path d="M513 2935 c1 -22 8 -31 23 -33 17 -2 22 3 26 27 3 17 1 31 -4 31 -4
0 -8 -12 -8 -26 0 -32 -22 -27 -32 7 -6 22 -7 21 -5 -6z"/>
<path d="M584 2945 c-10 -24 4 -45 28 -44 22 0 22 1 3 9 -17 7 -17 9 -2 9 25
1 23 41 -3 41 -11 0 -23 -7 -26 -15z"/>
<path d="M650 2949 c0 -7 8 -18 18 -26 16 -14 16 -14 0 -9 -10 3 -18 1 -18 -4
0 -13 37 -13 45 -1 3 5 1 12 -4 16 -6 3 -8 12 -4 20 3 10 -2 15 -16 15 -12 0
-21 -5 -21 -11z"/>
<path d="M782 2930 c-1 -26 3 -30 24 -30 22 0 25 4 22 28 -2 19 -9 28 -24 30
-17 2 -21 -2 -22 -28z m28 -10 c0 -5 -5 -10 -11 -10 -5 0 -7 5 -4 10 3 6 8 10
11 10 2 0 4 -4 4 -10z"/>
<path d="M846 2940 c5 -14 7 -36 7 -50 -1 -24 -1 -24 13 -5 8 10 14 24 14 31
0 7 3 21 6 31 5 17 5 17 -6 0 -11 -18 -12 -18 -26 0 -14 17 -14 16 -8 -7z"/>
<path d="M2987 2932 c-24 -26 -21 -32 11 -31 24 2 25 2 4 6 -23 4 -23 5 -6 24
9 10 15 19 12 19 -3 0 -12 -8 -21 -18z"/>
<path d="M650 2345 c0 -8 -6 -15 -14 -15 -16 0 -31 -34 -21 -50 3 -5 17 -10
31 -10 22 0 24 4 24 45 0 25 -4 45 -10 45 -5 0 -10 -7 -10 -15z m0 -45 c0 -19
-11 -26 -23 -14 -8 8 3 34 14 34 5 0 9 -9 9 -20z"/>
<path d="M920 2346 c0 -7 -9 -16 -20 -19 -14 -3 -20 -14 -20 -31 0 -21 5 -26
25 -26 23 0 25 4 25 45 0 25 -2 45 -5 45 -3 0 -5 -6 -5 -14z m0 -46 c0 -11 -7
-20 -15 -20 -15 0 -21 21 -8 33 12 13 23 7 23 -13z"/>
<path d="M445 2314 c4 -21 9 -41 11 -44 7 -6 24 22 24 40 0 13 -1 13 -10 0 -8
-12 -10 -11 -10 7 0 12 -5 25 -11 29 -9 5 -10 -4 -4 -32z"/>
<path d="M480 2343 c0 -15 24 -73 31 -73 4 0 11 18 17 40 5 23 6 40 1 40 -5 0
-9 -12 -9 -26 0 -14 -4 -23 -10 -19 -5 3 -10 15 -10 26 0 10 -4 19 -10 19 -5
0 -10 -3 -10 -7z"/>
<path d="M2205 2340 c-3 -6 1 -7 9 -4 21 8 21 -19 1 -36 -23 -19 -18 -30 13
-29 21 0 23 2 9 7 -16 7 -16 10 -3 27 10 14 11 24 4 32 -13 16 -25 17 -33 3z"/>
<path d="M2268 2343 c24 -5 25 -11 7 -58 -14 -35 4 -11 20 28 l15 37 -32 -1
c-25 -1 -28 -3 -10 -6z"/>
<path d="M2676 2341 c-4 -5 3 -7 14 -4 27 7 26 -14 -2 -44 l-21 -23 34 1 c29
1 31 2 10 8 -21 6 -22 8 -7 20 23 19 21 51 -3 51 -11 0 -22 -4 -25 -9z"/>
<path d="M2749 2348 c-6 -16 -6 -78 0 -78 5 0 8 6 7 13 0 6 4 12 9 12 6 0 9
-6 9 -12 -1 -7 2 -13 6 -13 5 0 8 18 8 40 0 32 -4 40 -19 40 -11 0 -19 -1 -20
-2z m31 -18 c0 -5 -7 -10 -15 -10 -8 0 -15 5 -15 10 0 6 7 10 15 10 8 0 15 -4
15 -10z"/>
<path d="M2906 2335 c-9 -26 -7 -32 5 -12 6 10 9 21 6 23 -2 3 -7 -2 -11 -11z"/>
<path d="M2988 2343 c7 -3 16 -2 19 1 4 3 -2 6 -13 5 -11 0 -14 -3 -6 -6z"/>
<path d="M3053 2343 c9 -2 23 -2 30 0 6 3 -1 5 -18 5 -16 0 -22 -2 -12 -5z"/>
<path d="M552 2313 c-14 -27 -4 -43 26 -42 l27 1 -25 8 c-25 8 -25 8 -2 9 17
1 22 6 20 18 -5 24 -35 28 -46 6z m33 -3 c3 -5 -1 -10 -10 -10 -9 0 -13 5 -10
10 3 6 8 10 10 10 2 0 7 -4 10 -10z"/>
<path d="M680 2301 c0 -17 5 -31 10 -31 6 0 10 11 10 25 0 14 5 25 10 25 6 0
10 -11 10 -25 0 -14 5 -25 11 -25 6 0 9 12 7 28 -2 21 -9 28 -30 30 -25 3 -28
0 -28 -27z"/>
<path d="M754 2316 c-10 -25 3 -46 28 -45 22 0 22 1 3 9 -18 8 -18 9 -2 9 12
1 17 7 15 18 -4 23 -36 29 -44 9z m36 -6 c0 -5 -7 -10 -16 -10 -8 0 -12 5 -9
10 3 6 10 10 16 10 5 0 9 -4 9 -10z"/>
<path d="M820 2315 c0 -9 8 -19 17 -22 15 -6 15 -7 -3 -14 -18 -7 -18 -8 2 -8
32 -1 37 11 12 32 l-23 18 24 -6 c16 -5 21 -4 17 4 -11 17 -46 13 -46 -4z"/>
<path d="M954 2319 c-5 -9 -2 -10 9 -6 10 3 17 2 17 -3 0 -6 -7 -10 -15 -10
-8 0 -15 -7 -15 -15 0 -9 10 -15 26 -15 22 0 25 4 22 27 -3 30 -31 43 -44 22z"/>
<path d="M1016 2309 c4 -13 8 -34 7 -46 -1 -30 3 -29 22 7 20 39 20 76 0 40
-10 -18 -14 -20 -15 -8 0 9 -5 20 -11 24 -8 4 -9 -1 -3 -17z"/>
<path d="M2886 2285 c-9 -26 -7 -32 5 -12 6 10 9 21 6 23 -2 3 -7 -2 -11 -11z"/>
<path d="M440 1710 c0 -5 5 -10 10 -10 6 0 10 -16 10 -35 0 -19 5 -35 10 -35
6 0 10 14 10 31 0 19 7 37 18 45 15 12 13 13 -20 14 -21 0 -38 -4 -38 -10z"/>
<path d="M523 1675 c0 -27 2 -38 4 -22 2 15 10 27 18 27 8 0 16 -12 18 -27 4
-26 4 -26 6 5 1 25 -3 32 -18 32 -11 0 -22 8 -24 18 -3 9 -5 -5 -4 -33z"/>
<path d="M800 1705 c0 -8 -9 -15 -21 -15 -16 0 -20 -5 -17 -27 2 -14 10 -29
18 -31 13 -5 13 -3 2 11 -8 9 -11 21 -7 27 11 18 24 11 28 -17 2 -17 5 -10 6
20 0 26 -1 47 -4 47 -3 0 -5 -7 -5 -15z"/>
<path d="M2683 1713 c-7 -2 -13 -10 -13 -16 0 -8 4 -7 12 1 32 32 38 -2 7 -42
l-20 -26 33 1 c23 1 26 3 11 6 -21 4 -22 6 -7 29 24 35 11 61 -23 47z"/>
<path d="M2758 1713 c26 -5 26 -9 7 -43 -8 -14 -14 -29 -14 -35 0 -14 38 57
39 73 0 7 -11 11 -27 11 -24 -2 -25 -2 -5 -6z"/>
<path d="M2817 1713 c-10 -9 -9 -23 1 -23 5 0 9 7 9 15 0 17 -1 18 -10 8z"/>
<path d="M2976 1712 c-2 -4 4 -8 14 -8 10 0 16 4 14 8 -3 4 -9 8 -14 8 -5 0
-11 -4 -14 -8z"/>
<path d="M3040 1716 c0 -2 11 -6 25 -8 14 -3 25 -1 25 3 0 5 -11 9 -25 9 -14
0 -25 -2 -25 -4z"/>
<path d="M2200 1700 c0 -5 7 -7 15 -4 20 8 19 -15 -2 -38 -15 -17 -15 -18 8
-17 13 0 18 3 12 6 -10 3 -9 10 2 27 8 12 12 26 8 29 -10 11 -43 8 -43 -3z"/>
<path d="M2273 1703 c11 -3 16 -10 13 -19 -16 -40 -19 -49 -9 -39 5 6 14 22
21 38 11 26 10 27 -16 26 -18 -1 -21 -3 -9 -6z"/>
<path d="M2320 1699 c0 -5 5 -7 10 -4 6 3 10 8 10 11 0 2 -4 4 -10 4 -5 0 -10
-5 -10 -11z"/>
<path d="M2902 1685 c-17 -37 -14 -45 4 -12 9 16 14 31 11 33 -2 2 -9 -7 -15
-21z"/>
<path d="M713 1693 c-18 -7 -16 -23 5 -40 16 -14 16 -14 0 -9 -10 3 -18 1 -18
-5 0 -14 42 -7 47 7 2 6 -7 16 -19 23 -13 6 -15 9 -5 7 9 -3 17 -1 17 4 0 12
-13 18 -27 13z"/>
<path d="M840 1690 c-12 -8 -9 -10 10 -10 l25 -1 -23 -10 c-28 -11 -24 -33 6
-37 18 -3 22 2 22 21 0 31 -20 49 -40 37z m25 -40 c-3 -5 -11 -10 -16 -10 -6
0 -7 5 -4 10 3 6 11 10 16 10 6 0 7 -4 4 -10z"/>
<path d="M582 1663 c2 -22 9 -29 31 -31 24 -3 27 0 27 27 0 17 -4 31 -10 31
-5 0 -10 -11 -10 -25 0 -14 -4 -25 -10 -25 -5 0 -10 11 -10 25 0 14 -5 25 -11
25 -6 0 -9 -12 -7 -27z"/>
<path d="M661 1658 c2 -28 2 -29 6 -8 3 14 10 28 17 32 7 5 5 8 -6 8 -14 0
-18 -8 -17 -32z"/>
<path d="M896 1673 c4 -10 7 -30 7 -45 0 -15 3 -25 8 -23 11 7 32 75 25 82 -3
4 -6 -1 -6 -10 0 -9 -4 -17 -10 -17 -5 0 -10 7 -10 15 0 8 -5 15 -11 15 -7 0
-8 -7 -3 -17z"/>
<path d="M2987 1662 c-24 -26 -21 -32 11 -31 24 2 25 2 4 6 -23 4 -23 5 -6 24
9 10 15 19 12 19 -3 0 -12 -8 -21 -18z"/>
<path d="M1992 1637 c-129 -24 -131 -41 -5 -45 95 -3 118 6 111 45 -3 18 -6
18 -106 0z"/>
<path d="M620 1076 c0 -7 -9 -16 -21 -19 -32 -9 -22 -51 14 -55 26 -3 27 -2
27 42 0 25 -4 46 -10 46 -5 0 -10 -6 -10 -14z m0 -46 c0 -11 -4 -20 -10 -20
-5 0 -10 9 -10 20 0 11 5 20 10 20 6 0 10 -9 10 -20z"/>
<path d="M440 1040 c0 -22 5 -40 10 -40 6 0 10 7 10 15 0 8 7 15 15 15 8 0 15
5 15 10 0 6 -7 10 -15 10 -23 0 -18 18 8 23 16 3 13 5 -10 6 -32 1 -33 0 -33
-39z"/>
<path d="M2205 1070 c-3 -6 1 -7 9 -4 21 8 21 -19 1 -36 -23 -19 -18 -30 13
-29 16 1 20 3 10 6 -21 5 -23 14 -7 30 13 13 5 43 -10 43 -5 0 -13 -4 -16 -10z"/>
<path d="M2268 1073 c-9 -17 -7 -62 3 -68 19 -12 37 14 30 42 -7 27 -26 41
-33 26z m22 -13 c0 -5 -4 -10 -10 -10 -5 0 -10 5 -10 10 0 6 5 10 10 10 6 0
10 -4 10 -10z m4 -41 c-3 -5 -10 -7 -15 -3 -5 3 -7 10 -3 15 3 5 10 7 15 3 5
-3 7 -10 3 -15z"/>
<path d="M2676 1071 c-4 -5 3 -7 14 -4 27 7 26 -14 -2 -44 l-21 -23 34 1 c29
1 31 2 10 8 -21 6 -22 8 -7 20 23 19 21 51 -3 51 -11 0 -22 -4 -25 -9z"/>
<path d="M2758 1073 c26 -5 26 -6 7 -43 -9 -17 -13 -30 -11 -30 7 0 36 56 36
70 0 5 -12 9 -27 9 -24 -2 -25 -2 -5 -6z"/>
<path d="M2906 1065 c-9 -26 -7 -32 5 -12 6 10 9 21 6 23 -2 3 -7 -2 -11 -11z"/>
<path d="M3045 1059 c1 -9 -2 -23 -6 -32 -6 -10 -5 -18 1 -22 6 -3 10 3 10 15
0 13 5 20 13 17 6 -2 11 -11 11 -20 -1 -9 2 -15 6 -12 10 6 7 61 -3 72 -5 4
-5 0 -1 -10 4 -11 1 -17 -9 -17 -9 0 -17 6 -20 13 -2 6 -3 5 -2 -4z"/>
<path d="M511 1028 c1 -22 3 -26 6 -13 3 11 10 26 15 33 8 9 6 12 -6 12 -12 0
-16 -9 -15 -32z"/>
<path d="M550 1031 c0 -17 2 -31 4 -31 8 0 13 51 5 56 -5 3 -9 -9 -9 -25z"/>
<path d="M655 1049 c-5 -8 -1 -9 14 -4 12 4 21 2 21 -4 0 -6 -9 -11 -20 -11
-11 0 -20 -7 -20 -15 0 -9 10 -15 26 -15 22 0 25 4 22 27 -3 29 -31 43 -43 22z
m32 -35 c-3 -3 -12 -4 -19 -1 -8 3 -5 6 6 6 11 1 17 -2 13 -5z"/>
<path d="M723 1018 c2 -35 5 -44 13 -35 15 16 36 79 24 72 -6 -4 -10 -14 -10
-23 -1 -12 -5 -10 -15 8 -13 24 -14 23 -12 -22z"/>
<path d="M2080 1021 c-8 -5 -54 -14 -102 -21 -49 -7 -88 -16 -88 -20 0 -21 31
-30 100 -30 63 0 80 3 94 19 22 24 18 64 -4 52z"/>
<path d="M2886 1015 c-9 -26 -7 -32 5 -12 6 10 9 21 6 23 -2 3 -7 -2 -11 -11z"/>
<path d="M2983 1003 c9 -2 23 -2 30 0 6 3 -1 5 -18 5 -16 0 -22 -2 -12 -5z"/>
</g>
</svg>
