<?xml version="1.0" standalone="no"?>
<!DOCTYPE svg PUBLIC "-//W3C//DTD SVG 20010904//EN"
 "http://www.w3.org/TR/2001/REC-SVG-20010904/DTD/svg10.dtd">
<svg version="1.0" xmlns="http://www.w3.org/2000/svg"
 width="343.000000pt" height="727.000000pt" viewBox="0 0 343.000000 727.000000"
 preserveAspectRatio="xMidYMid meet">

<g transform="translate(0.000000,727.000000) scale(0.100000,-0.100000)"
fill="#000000" stroke="none">
<path d="M645 7149 c-176 -7 -227 -19 -305 -69 -103 -66 -159 -156 -182 -290
-9 -59 -12 -741 -13 -3150 0 -2952 1 -3078 18 -3155 11 -44 30 -99 43 -122 32
-55 102 -129 131 -138 13 -3 23 -11 23 -17 0 -6 3 -9 6 -5 4 3 21 -1 38 -10
17 -10 42 -18 56 -20 14 -2 34 -8 45 -13 24 -12 2532 -9 2583 4 109 25 176 66
237 144 25 31 55 82 67 112 l23 55 6 1945 c4 1070 3 2049 -2 2175 -9 247 -13
811 -11 1440 2 423 -4 762 -14 810 -19 88 -99 199 -177 244 -111 63 -63 61
-1293 63 -615 2 -1191 0 -1279 -3z m1727 -16 c-327 -2 -858 -2 -1180 0 -323 1
-56 2 593 2 649 0 913 -1 587 -2z m681 -10 c-7 -2 -19 -2 -25 0 -7 3 -2 5 12
5 14 0 19 -2 13 -5z m-2563 -43 c0 -5 -19 -19 -42 -31 -98 -50 -163 -127 -201
-240 -20 -62 -21 -85 -27 -614 l-6 -550 0 590 1 590 24 60 c32 78 107 155 181
183 64 24 70 25 70 12z m-313 -1723 c-1 -260 -2 -44 -2 478 0 523 1 735 2 472
2 -263 2 -691 0 -950z m663 1316 c0 -13 -3 -14 -12 -5 -17 17 -38 15 -38 -3 0
-9 10 -15 26 -15 21 0 25 -4 22 -22 -2 -17 -10 -23 -27 -23 -13 0 -25 6 -27
13 -1 7 0 8 3 2 7 -16 43 -12 43 5 0 9 -9 15 -25 15 -20 0 -25 5 -25 25 0 21
5 25 30 25 22 0 30 -5 30 -17z m2029 3 c9 -11 6 -21 -16 -46 l-27 -32 -27 33
c-20 25 -25 37 -17 46 14 17 73 16 87 -1z m219 -34 c3 -42 2 -43 -25 -40 -22
2 -29 9 -31 31 -4 33 14 59 37 55 11 -2 17 -16 19 -46z m-2568 23 c15 -18 -1
-66 -22 -64 -10 0 -10 2 0 6 17 7 15 23 -3 23 -15 0 -21 31 -8 43 10 11 19 8
33 -8z m80 -26 c0 -16 -4 -29 -9 -29 -9 0 -21 57 -13 65 11 10 22 -8 22 -36z
m65 1 c0 -28 -4 -35 -20 -35 -15 0 -20 7 -21 30 -2 38 4 47 24 43 12 -2 17
-14 17 -38z m2325 0 l0 -40 -47 0 -47 0 39 40 c21 22 43 40 47 40 4 0 8 -18 8
-40z m-210 -235 c0 -8 -4 -15 -10 -15 -5 0 -10 7 -10 15 0 8 5 15 10 15 6 0
10 -7 10 -15z m395 -20 c14 -13 25 -35 25 -48 0 -31 -46 -77 -77 -77 -32 0
-73 42 -73 75 0 33 42 75 75 75 14 0 37 -11 50 -25z m-2597 -44 c1 -28 -3 -53
-8 -56 -6 -4 -10 18 -10 55 0 72 17 73 18 1z m-118 5 c0 -18 -6 -40 -13 -50
-15 -20 -48 -19 -55 2 -3 9 3 11 22 6 25 -6 26 -5 26 41 0 28 4 44 10 40 6 -3
10 -21 10 -39z m298 32 c19 -19 14 -63 -8 -83 -11 -10 -23 -15 -27 -11 -5 4 1
13 12 19 19 11 19 11 -5 17 -28 7 -38 34 -20 55 15 18 32 19 48 3z m159 -5 c4
-9 -1 -29 -10 -45 -15 -27 -15 -28 3 -28 11 0 20 -4 20 -10 0 -5 -16 -10 -35
-10 -42 0 -43 9 -10 48 30 36 31 42 5 42 -11 0 -20 -5 -20 -12 0 -6 -3 -9 -6
-5 -4 3 -4 13 -1 22 8 20 46 19 54 -2z m82 3 c17 -20 10 -77 -11 -89 -24 -16
-48 8 -48 47 0 49 34 73 59 42z m88 -2 c3 -9 -2 -29 -11 -45 -15 -26 -15 -29
-2 -29 9 0 16 -4 16 -10 0 -5 -16 -10 -35 -10 -32 0 -35 2 -26 18 5 10 17 24
25 32 9 7 16 19 16 26 0 17 -27 18 -33 2 -2 -7 -8 -10 -12 -6 -12 11 15 38 37
38 10 0 21 -7 25 -16z m78 -39 c0 -46 -2 -50 -24 -50 -13 0 -26 6 -29 13 -3 9
3 11 22 6 28 -7 38 12 11 22 -8 4 -15 10 -15 15 0 5 7 9 15 9 8 0 15 5 15 11
0 7 -10 9 -25 7 -14 -3 -25 -2 -25 2 0 13 14 21 35 18 17 -3 20 -10 20 -53z
m1570 45 c3 -5 17 -10 29 -10 32 0 53 -26 39 -48 -22 -36 -80 -18 -69 22 3 12
-2 25 -12 32 -10 8 -12 14 -5 14 6 0 15 -4 18 -10z m-2229 -80 c9 0 14 11 14
30 0 17 5 30 10 30 6 0 10 -17 10 -39 0 -35 -2 -38 -27 -37 -26 1 -28 5 -29
41 -1 32 -1 34 3 8 3 -20 10 -33 19 -33z m110 38 l7 -23 8 23 c5 12 13 22 18
22 6 0 4 -17 -5 -42 -16 -46 -31 -68 -46 -68 -6 0 -5 7 2 15 11 14 9 39 -6 79
-3 9 -1 16 4 16 6 0 14 -10 18 -22z m2104 2 c0 -5 -7 -10 -15 -10 -8 0 -15 5
-15 10 0 6 7 10 15 10 8 0 15 -4 15 -10z m130 0 c0 -5 -7 -10 -15 -10 -8 0
-15 5 -15 10 0 6 7 10 15 10 8 0 15 -4 15 -10z m-2054 -77 c-11 -11 -17 4 -9
23 7 18 8 18 11 1 2 -10 1 -21 -2 -24z m1939 27 c-3 -5 -11 -10 -16 -10 -6 0
-7 5 -4 10 3 6 11 10 16 10 6 0 7 -4 4 -10z m45 -20 c0 -5 -4 -10 -10 -10 -5
0 -10 5 -10 10 0 6 5 10 10 10 6 0 10 -4 10 -10z m-2370 -317 l1 -38 30 38
c17 20 40 37 51 37 19 0 19 -2 -6 -34 -14 -19 -26 -37 -26 -41 0 -3 11 -23 25
-45 24 -39 25 -40 5 -40 -12 0 -28 12 -38 30 -14 23 -21 27 -30 18 -7 -7 -12
-20 -12 -30 0 -10 -7 -18 -15 -18 -12 0 -15 16 -15 80 0 64 3 80 15 80 11 0
15 -11 15 -37z m243 19 c26 -28 31 -75 13 -111 -14 -27 -22 -31 -56 -31 -47 0
-70 26 -70 82 0 67 72 105 113 60z m136 -34 l31 -53 0 53 c0 45 3 52 20 52 18
0 20 -7 20 -80 0 -73 -2 -80 -20 -80 -13 0 -30 17 -50 48 l-30 47 0 -47 c0
-41 -3 -48 -20 -48 -18 0 -20 7 -20 80 0 72 2 80 19 80 13 0 30 -18 50 -52z
m151 15 l0 -38 27 38 c14 20 34 37 45 37 22 0 23 -13 2 -30 -32 -27 -34 -45
-9 -83 30 -43 30 -47 7 -47 -10 0 -26 14 -36 30 -19 34 -36 31 -36 -6 0 -15
-6 -24 -15 -24 -12 0 -15 16 -15 80 0 64 3 80 15 80 11 0 15 -11 15 -37z m241
-43 c16 -41 29 -76 29 -77 0 -11 -39 0 -44 12 -3 9 -18 15 -36 15 -20 0 -30
-5 -30 -15 0 -8 -9 -15 -19 -15 -20 0 -20 1 -2 53 35 98 41 109 57 105 9 -2
28 -35 45 -78z m129 33 l30 -48 0 48 c0 40 3 47 20 47 18 0 20 -7 20 -80 0
-72 -2 -80 -19 -80 -12 0 -30 17 -48 48 l-28 47 -3 -47 c-2 -37 -7 -48 -20
-48 -15 0 -17 10 -14 80 4 96 17 103 62 33z m294 26 c20 -16 26 -29 26 -61 0
-56 -22 -78 -77 -78 l-43 0 0 80 0 80 34 0 c19 0 45 -9 60 -21z m116 -59 c0
-73 -2 -80 -20 -80 -18 0 -20 7 -20 80 0 73 2 80 20 80 18 0 20 -7 20 -80z
m75 68 c2 -7 9 -33 15 -57 13 -50 22 -45 40 22 10 36 17 47 32 47 12 0 18 -5
16 -12 -3 -7 -15 -43 -28 -80 -19 -55 -28 -68 -44 -68 -17 0 -26 15 -48 80
-25 77 -26 80 -7 80 11 0 22 -6 24 -12z m175 -68 c0 -64 -3 -80 -15 -80 -12 0
-15 16 -15 80 0 64 3 80 15 80 12 0 15 -16 15 -80z m151 70 c23 -13 26 -40 4
-40 -8 0 -15 5 -15 10 0 6 -11 10 -25 10 -37 0 -30 -17 16 -40 36 -19 40 -24
37 -53 -3 -30 -6 -32 -46 -35 -45 -3 -72 10 -72 34 0 19 27 18 38 -2 10 -19
47 -15 47 5 0 7 -15 21 -34 30 -49 23 -60 45 -37 70 21 23 56 27 87 11z m109
-70 c0 -73 -2 -80 -20 -80 -18 0 -20 7 -20 80 0 73 2 80 20 80 18 0 20 -7 20
-80z m146 72 c34 -22 44 -93 18 -130 -11 -16 -25 -22 -54 -22 -46 0 -70 26
-70 76 0 60 63 105 106 76z m146 -44 l33 -53 3 53 c2 37 7 52 18 52 11 0 14
-17 14 -80 0 -73 -2 -80 -20 -80 -12 0 -29 17 -47 48 l-28 47 -3 -47 c-2 -34
-7 -48 -18 -48 -11 0 -14 17 -14 80 0 98 13 104 62 28z m-1866 -267 c41 -19
75 -57 88 -97 4 -12 20 -27 35 -34 16 -6 39 -22 52 -36 12 -13 34 -24 48 -24
37 0 87 -34 106 -70 9 -18 15 -33 13 -35 -2 -2 -32 -8 -68 -14 -36 -6 -128
-22 -205 -36 -77 -13 -169 -29 -204 -35 -36 -6 -68 -13 -72 -16 -12 -7 -21 34
-14 65 3 16 15 36 25 46 18 16 18 18 -6 52 -42 63 -30 156 28 210 48 46 108
54 174 24z m1677 -105 c9 -7 22 -27 28 -44 14 -42 -5 -84 -76 -160 l-57 -62
76 0 c61 0 76 -3 76 -15 0 -12 -18 -15 -100 -15 -83 0 -100 3 -100 15 0 8 31
49 69 89 71 77 89 113 72 145 -20 37 -88 30 -98 -9 -7 -25 -43 -27 -43 -3 0 9
12 30 27 45 21 22 36 28 67 28 23 0 49 -7 59 -14z m243 -17 c27 -28 29 -36 29
-107 -1 -115 -25 -151 -108 -166 -34 -6 -38 -5 -35 10 2 11 16 21 38 25 37 8
60 32 60 61 0 15 -3 17 -19 8 -61 -32 -121 14 -121 95 0 66 33 104 91 105 27
0 42 -7 65 -31z m176 14 c25 -22 23 -59 -4 -77 -29 -20 -47 -20 -70 1 -22 20
-23 42 -2 71 18 26 50 28 76 5z m172 -209 c3 -8 1 -24 -4 -34 -7 -13 -7 -21 0
-25 5 -3 10 -12 10 -18 -1 -7 -9 -2 -19 11 -11 12 -24 22 -29 22 -6 0 -13 -10
-15 -22 -2 -13 -5 -2 -6 23 0 25 2 49 6 52 12 13 51 7 57 -9z m96 -50 c0 -33
-2 -35 -27 -32 -35 4 -37 28 -4 44 l24 12 -24 5 c-22 4 -22 4 4 6 25 1 27 -2
27 -35z m60 1 c0 -19 -4 -35 -10 -35 -5 0 -10 16 -10 35 0 19 5 35 10 35 6 0
10 -16 10 -35z m88 -2 c-1 -37 -1 -37 -5 -5 -6 42 -33 44 -33 2 0 -16 -4 -30
-10 -30 -5 0 -10 16 -10 35 0 32 2 35 30 35 28 0 30 -2 28 -37z m-2535 -203
c-7 -25 -29 -44 -43 -35 -18 11 -11 35 13 45 33 13 36 12 30 -10z m139 -2 c-7
-7 -12 -8 -12 -2 0 14 12 26 19 19 2 -3 -1 -11 -7 -17z m1725 -204 c3 -9 2
-24 -4 -33 -7 -12 -6 -19 6 -28 14 -11 11 -12 -16 -13 -39 0 -40 6 -12 36 12
13 18 28 14 34 -6 9 -10 9 -16 -1 -4 -7 -11 -10 -14 -7 -10 10 4 28 21 28 8 0
17 -7 21 -16z m71 -20 c3 -30 -21 -64 -35 -50 -4 4 -2 11 6 15 10 7 9 10 -3
14 -9 4 -16 15 -16 25 0 45 44 41 48 -4z m42 21 c0 -8 -4 -15 -9 -15 -13 0
-22 16 -14 24 11 11 23 6 23 -9z m417 -1 c3 -9 2 -24 -4 -33 -7 -12 -6 -19 6
-28 14 -11 11 -12 -16 -13 -38 0 -41 9 -13 35 11 10 20 22 20 28 0 5 -9 7 -20
4 -20 -5 -26 3 -13 16 12 12 34 7 40 -9z m71 -20 c3 -30 -21 -64 -35 -50 -4 4
-2 11 6 15 10 7 9 10 -3 14 -9 4 -16 15 -16 25 0 45 44 41 48 -4z m47 27 c7
-12 -12 -24 -25 -16 -11 7 -4 25 10 25 5 0 11 -4 15 -9z m-810 -49 c-2 -3 -11
1 -20 8 -12 10 -18 10 -30 0 -23 -19 -31 -3 -10 20 l18 20 24 -22 c12 -12 21
-24 18 -26z m483 26 c8 -8 15 -8 27 2 24 20 28 6 6 -21 -19 -23 -19 -24 -40
-5 -21 19 -27 36 -13 36 4 0 13 -5 20 -12z m-2641 -1735 c-1 -312 -2 -59 -2
562 0 622 1 877 2 568 2 -309 2 -817 0 -1130z m1583 1390 c0 -10 3 -28 6 -40
6 -21 3 -23 -40 -23 -25 0 -46 3 -46 7 0 10 62 73 72 73 4 0 8 -8 8 -17z m180
-143 c0 -137 -2 -162 -16 -167 -8 -3 -20 -1 -27 6 -8 8 -7 11 6 11 15 0 17 15
17 145 0 90 -4 145 -10 145 -5 0 -10 5 -10 10 0 6 9 10 20 10 19 0 20 -7 20
-160z m825 146 c11 -8 18 -26 18 -46 0 -20 -7 -38 -18 -46 -23 -17 -151 -19
-161 -3 -11 19 18 29 84 29 55 0 62 2 62 20 0 23 -29 27 -48 8 -9 -9 -15 -9
-24 0 -9 9 -7 16 7 32 21 23 53 26 80 6z m-1877 -26 c17 -11 32 -22 32 -24 0
-3 -30 -20 -67 -39 -98 -50 -186 -98 -200 -109 -15 -12 -26 7 -18 32 3 11 18
29 32 40 14 11 33 34 42 52 34 63 118 85 179 48z m1997 -126 c17 -7 45 -54 45
-78 0 -8 -12 -28 -26 -45 -29 -35 -66 -40 -102 -15 -22 15 -30 44 -12 44 6 0
10 -5 10 -10 0 -6 11 -15 25 -22 19 -9 29 -8 50 6 28 18 35 66 12 84 -8 7 -73
13 -162 14 -108 2 -149 6 -153 16 -3 9 31 12 146 12 83 0 158 -3 167 -6z
m-2058 -331 c-9 -2 -15 -9 -12 -14 4 -5 1 -9 -4 -9 -12 0 -14 13 -4 23 3 4 13
6 22 6 13 -1 12 -2 -2 -6z m962 -30 c-2 -31 -3 -33 -6 -10 -3 18 -9 25 -16 20
-7 -4 -6 0 2 10 19 24 21 22 20 -20z m748 -15 c-2 -13 -4 -5 -4 17 -1 22 1 32
4 23 2 -10 2 -28 0 -40z m148 42 c3 -6 -1 -7 -9 -4 -18 7 -21 14 -7 14 6 0 13
-4 16 -10z m247 -36 c-6 -35 -12 -29 -12 14 0 23 3 32 9 24 4 -7 6 -24 3 -38z
m-166 7 c0 -11 -5 -17 -13 -14 -10 4 -11 9 -2 19 15 18 15 18 15 -5z m31 -18
c-3 -10 -5 -4 -5 12 0 17 2 24 5 18 2 -7 2 -21 0 -30z m-1061 16 c3 -6 1 -16
-5 -22 -9 -9 -11 -8 -6 6 5 12 2 17 -10 17 -12 0 -15 -5 -10 -17 5 -14 3 -15
-6 -6 -13 13 -4 33 16 33 8 0 17 -5 21 -11z m1231 -21 c-3 -7 -5 -2 -5 12 0
14 2 19 5 13 2 -7 2 -19 0 -25z m-2204 7 c-3 -9 -8 -14 -10 -11 -3 3 -2 9 2
15 9 16 15 13 8 -4z m-213 -361 c0 -19 -4 -33 -9 -30 -10 7 -20 53 -13 61 14
13 22 2 22 -31z m49 -1 c-2 -31 -3 -33 -6 -10 -2 15 -9 27 -14 27 -6 0 -7 5
-4 10 13 22 25 8 24 -27z m82 15 l0 -23 10 23 c12 32 43 25 47 -11 4 -31 -20
-46 -42 -28 -11 9 -15 9 -18 0 -3 -8 -11 -10 -24 -5 -16 7 -16 9 -4 15 21 8
23 41 2 34 -10 -4 -13 -2 -8 5 12 20 36 13 37 -10z m167 2 c1 -9 -4 -24 -12
-35 -15 -20 -15 -20 -16 2 0 16 -5 20 -19 16 -11 -3 -22 -12 -24 -22 -3 -9 -5
1 -6 22 -1 37 -1 37 36 34 24 -1 39 -8 41 -17z m42 -17 c0 -28 -3 -34 -10 -23
-8 13 -10 13 -10 1 0 -11 -3 -12 -11 -4 -8 8 -6 18 6 37 10 14 19 26 21 26 2
0 4 -17 4 -37z m428 12 c-4 -17 0 -29 11 -35 12 -7 9 -9 -16 -10 -36 0 -42 10
-18 30 8 7 15 16 15 21 0 5 -7 6 -15 3 -8 -4 -15 -1 -15 5 0 6 10 11 21 11 17
0 20 -5 17 -25z m73 3 l0 -23 10 23 c11 30 43 25 47 -7 5 -33 -13 -48 -34 -30
-13 11 -18 11 -21 2 -6 -16 -29 -17 -39 -1 -5 7 -2 9 8 5 12 -4 15 1 14 18 0
13 -4 21 -8 18 -5 -2 -8 1 -8 6 0 22 30 10 31 -11z m129 -4 c10 -26 13 -61 3
-36 -6 15 -33 16 -33 0 0 -6 -2 -9 -5 -6 -8 8 7 68 16 68 5 0 14 -12 19 -26z
m44 4 l7 -23 11 23 c16 33 28 27 28 -14 0 -31 -2 -35 -15 -24 -8 7 -15 8 -15
3 0 -5 -9 -9 -20 -9 -16 0 -20 7 -20 33 0 38 14 44 24 11z m481 12 c-13 -6
-15 -9 -5 -9 17 -1 45 -39 36 -49 -3 -3 -6 0 -6 8 0 10 -3 10 -15 0 -12 -10
-19 -10 -27 -2 -9 9 -8 12 5 12 9 0 17 5 17 10 0 6 -7 10 -15 10 -8 0 -15 7
-15 15 0 9 9 15 23 14 21 0 21 -1 2 -9z m86 -12 l0 -23 10 23 c12 32 43 25 47
-11 4 -31 -20 -46 -42 -28 -11 9 -15 9 -18 0 -3 -8 -11 -10 -24 -5 -18 8 -18
8 -1 15 17 6 17 8 3 20 -18 15 -13 31 10 31 8 0 14 -10 15 -22z m127 -3 c17
-37 15 -50 -5 -34 -13 11 -17 11 -20 1 -3 -6 -8 -10 -13 -7 -9 5 10 65 21 65
3 0 11 -11 17 -25z m62 -27 c0 -4 -4 -10 -10 -13 -5 -3 -10 2 -11 12 0 16 -1
16 -9 -2 -7 -16 -9 -11 -9 20 l-1 40 20 -25 c11 -14 20 -28 20 -32z m30 17 c0
-19 -2 -35 -5 -35 -10 0 -24 40 -19 54 11 28 24 17 24 -19z m445 0 c0 -43 -29
-40 -33 3 -3 28 0 33 15 30 13 -2 18 -12 18 -33z m76 13 l0 -23 9 23 c14 33
40 28 40 -7 0 -33 -16 -49 -33 -32 -7 7 -14 7 -24 -1 -10 -8 -17 -8 -25 0 -9
9 -8 12 7 12 17 0 17 1 2 18 -22 24 -21 32 3 32 14 0 20 -7 21 -22z m127 -5
c9 -23 11 -24 12 -8 1 11 2 23 1 28 -3 17 20 5 29 -15 l9 -23 7 23 c3 12 10
22 14 22 11 0 18 -60 8 -66 -4 -3 -8 3 -8 13 -1 17 -1 17 -11 -1 -9 -15 -13
-16 -20 -5 -5 9 -9 10 -9 2 0 -12 -17 -12 -38 1 -7 4 -19 2 -27 -4 -18 -15
-18 -12 -4 29 13 38 24 39 37 4z m-2313 -154 c19 -17 38 -41 41 -53 6 -23 96
-86 123 -86 19 0 60 -26 78 -50 34 -43 20 -47 -429 -118 -25 -4 -28 -1 -28 26
0 16 9 41 20 55 17 22 18 26 5 37 -8 7 -20 30 -26 51 -10 32 -9 46 5 81 34 90
141 118 211 57z m741 0 c14 -13 32 -39 39 -56 8 -18 20 -33 28 -33 7 0 24 -11
36 -24 12 -13 39 -26 61 -30 26 -4 47 -16 64 -37 38 -45 34 -55 -26 -62 -80
-9 -397 -65 -408 -72 -16 -10 -11 68 5 89 12 16 11 23 -6 54 -36 68 -18 144
44 183 45 28 127 22 163 -12z m722 11 c18 -11 40 -36 47 -54 8 -18 29 -43 47
-55 18 -11 40 -25 48 -30 8 -5 28 -13 44 -16 33 -7 90 -59 83 -78 -2 -6 -24
-15 -48 -19 -24 -3 -126 -20 -227 -38 -100 -17 -187 -28 -192 -25 -15 9 -12
37 8 70 18 29 18 31 0 60 -22 37 -23 96 -3 136 34 65 128 89 193 49z m688 -5
c18 -18 32 -23 48 -19 35 8 99 -12 126 -41 13 -14 34 -25 48 -25 53 0 112 -62
112 -118 0 -33 -18 -71 -46 -97 -27 -25 -29 -25 -208 -25 -203 0 -216 4 -236
65 -10 31 -9 41 9 77 18 37 19 44 6 58 -8 9 -15 35 -15 57 0 83 98 126 156 68z
m-28 -382 c-4 -22 -38 -30 -38 -10 0 14 13 24 33 26 5 1 7 -7 5 -16z m207 -32
c-7 -24 -35 -29 -35 -6 0 13 31 38 38 30 2 -2 1 -13 -3 -24z m-115 -29 c0 -5
-6 -17 -14 -28 -12 -16 -17 -17 -28 -6 -11 11 -10 16 6 28 22 16 36 18 36 6z
m-665 -21 c-3 -6 -11 -8 -17 -5 -6 4 -5 9 3 15 16 10 23 4 14 -10z m-1605 -11
c-12 -22 -25 -26 -35 -10 -9 15 4 30 26 30 17 0 18 -3 9 -20z m740 6 c0 -8 -5
-18 -11 -22 -14 -8 -33 11 -25 25 10 16 36 13 36 -3z m130 10 c0 -3 -4 -8 -10
-11 -5 -3 -10 -1 -10 4 0 6 5 11 10 11 6 0 10 -2 10 -4z m610 -11 c0 -16 -27
-32 -37 -22 -3 4 -3 13 0 22 8 20 37 20 37 0z m-595 -75 c-5 -8 -11 -8 -17 -2
-6 6 -7 16 -3 22 5 8 11 8 17 2 6 -6 7 -16 3 -22z m-835 2 c0 -10 -5 -23 -12
-30 -9 -9 -8 -12 5 -12 9 0 18 6 18 13 1 6 2 19 3 27 0 8 11 16 24 18 18 3 22
-1 22 -22 0 -14 1 -29 3 -33 1 -5 -22 -9 -51 -10 l-52 -3 16 25 c15 23 15 25
0 25 -9 0 -16 5 -16 10 0 6 9 10 20 10 13 0 20 -7 20 -18z m100 8 c0 -5 -7
-10 -15 -10 -8 0 -15 5 -15 10 0 6 7 10 15 10 8 0 15 -4 15 -10z m636 -5 c4
-8 1 -22 -5 -29 -9 -11 -9 -15 1 -19 7 -3 0 -6 -16 -6 l-29 -1 21 23 c23 25
20 40 -6 30 -10 -4 -13 -2 -8 5 10 17 36 15 42 -3z m64 5 c0 -16 -23 -60 -31
-60 -5 0 -4 12 1 26 13 33 13 32 -7 37 -11 3 -7 5 10 6 15 0 27 -3 27 -9z
m675 0 c3 -5 1 -18 -4 -29 -8 -14 -8 -21 2 -24 6 -3 -1 -6 -17 -6 -28 -1 -28
0 -13 17 21 23 21 32 1 32 -8 0 -12 5 -9 10 8 13 32 13 40 0z m65 5 c0 -13
-32 -66 -37 -62 -2 3 0 14 6 25 15 27 14 30 -6 35 -11 3 -7 5 10 6 15 0 27 -1
27 -4z m40 -5 c0 -5 -7 -10 -15 -10 -8 0 -15 5 -15 10 0 6 7 10 15 10 8 0 15
-4 15 -10z m692 4 c4 -3 1 -19 -8 -35 -18 -37 -29 -33 -15 5 9 22 8 26 -8 26
-22 0 -46 -46 -28 -54 7 -2 -1 -5 -17 -5 -28 -1 -28 0 -13 17 21 23 21 32 1
32 -8 0 -13 4 -10 9 6 9 84 13 98 5z m43 -4 c3 -5 -1 -10 -9 -10 -9 0 -16 5
-16 10 0 6 4 10 9 10 6 0 13 -4 16 -10z m-2818 -1952 c-1 -260 -2 -48 -2 472
0 520 1 732 2 473 2 -260 2 -686 0 -945z m230 1350 l18 -33 3 33 c5 51 22 37
22 -18 0 -57 -16 -66 -42 -22 l-17 27 -1 -27 c0 -18 -5 -28 -15 -28 -11 0 -15
12 -15 50 0 60 20 67 47 18z m353 22 c0 -5 -10 -10 -22 -11 l-23 0 23 -10 c18
-7 23 -15 20 -36 -2 -22 -9 -29 -30 -31 -21 -3 -28 1 -28 14 0 14 3 15 12 6
18 -18 28 -15 28 8 0 13 -7 20 -20 20 -15 0 -20 7 -20 25 0 21 5 25 30 25 17
0 30 -4 30 -10z m118 -2 c15 -15 15 -61 0 -76 -7 -7 -22 -12 -35 -12 -21 0
-23 4 -23 50 0 46 2 50 23 50 13 0 28 -5 35 -12z m-237 -5 c5 -53 2 -83 -7
-83 -15 0 -24 23 -24 61 0 19 5 29 15 29 8 0 15 -3 16 -7z m-123 -15 c20 -20
14 -38 -14 -38 -15 0 -23 -4 -19 -10 4 -6 16 -8 27 -4 14 4 18 2 14 -5 -4 -6
-18 -11 -31 -11 -18 0 -26 7 -31 25 -10 42 26 71 54 43z m67 -2 c15 6 16 4 7
-12 -6 -11 -7 -25 -2 -35 7 -13 3 -16 -21 -16 -29 0 -38 10 -19 22 7 4 7 12 0
25 -14 26 -12 35 4 21 7 -6 21 -8 31 -5z m375 -5 c5 -11 10 -29 10 -40 0 -17
-6 -21 -30 -21 -23 0 -30 4 -30 20 0 11 6 20 14 20 8 0 18 5 22 12 5 8 0 9
-14 6 -21 -6 -29 2 -15 15 12 13 32 7 43 -12z m40 -9 c0 -13 5 -12 20 8 16 20
20 22 20 8 0 -30 -32 -98 -46 -98 -16 0 -19 17 -3 22 7 2 7 12 0 31 -14 36
-14 60 -1 52 6 -3 10 -14 10 -23z m108 9 c3 -9 -2 -11 -19 -7 l-24 7 23 -17
c12 -9 22 -23 22 -30 0 -17 -46 -19 -56 -3 -4 8 0 9 15 4 12 -4 21 -2 21 4 0
6 -7 11 -15 11 -21 0 -31 30 -14 41 19 12 41 7 47 -10z m831 -315 c7 -8 20
-12 30 -9 19 5 110 -39 123 -60 15 -23 8 -56 -14 -71 -29 -20 -180 -23 -196
-3 -16 19 -9 136 8 147 21 14 36 12 49 -4z m-1455 -77 l13 -31 13 31 c18 45
30 38 30 -20 0 -31 -4 -48 -10 -44 -5 3 -10 14 -11 23 0 15 -1 15 -8 -1 -9
-25 -25 -23 -33 5 -6 22 -6 21 -7 -4 -2 -50 -21 -29 -21 22 0 57 15 65 34 19z
m266 -18 c0 -46 -1 -48 -27 -47 -23 1 -29 6 -31 29 -3 22 1 30 17 34 12 3 21
12 21 19 0 8 5 14 10 14 6 0 10 -22 10 -49z m1947 33 c3 -9 1 -25 -5 -35 -16
-24 -15 -29 3 -29 8 0 15 -4 15 -10 0 -5 -13 -10 -30 -10 -35 0 -37 6 -10 40
25 32 25 43 0 35 -11 -3 -20 -2 -20 3 0 25 38 30 47 6z m70 4 c24 -38 2 -97
-32 -84 -15 5 -22 76 -8 89 10 11 31 8 40 -5z m48 -6 c0 -18 -20 -15 -23 4 -3
10 1 15 10 12 7 -3 13 -10 13 -16z m70 -37 c-9 -26 -19 -44 -22 -41 -3 3 3 25
12 51 10 25 20 43 23 40 3 -2 -3 -25 -13 -50z m105 40 c10 -12 9 -20 -4 -40
-14 -22 -15 -25 -1 -25 8 0 15 -4 15 -10 0 -5 -13 -10 -30 -10 -35 0 -36 4
-10 37 11 14 20 30 20 35 0 5 -9 6 -20 3 -19 -6 -27 5 -13 18 11 11 30 8 43
-8z m75 5 c3 -5 -4 -29 -16 -52 -12 -24 -24 -38 -26 -31 -2 6 3 25 12 42 15
30 15 31 -5 31 -11 0 -20 5 -20 10 0 13 47 13 55 0z m40 -8 c0 -18 -20 -15
-23 4 -3 10 1 15 10 12 7 -3 13 -10 13 -16z m-872 -6 c3 -8 -1 -20 -9 -26 -15
-14 -20 -35 -5 -25 5 3 12 1 16 -5 4 -6 -6 -10 -24 -10 -36 0 -38 6 -10 36 13
14 17 24 10 29 -6 3 -11 1 -11 -5 0 -6 -5 -8 -10 -5 -6 4 -8 11 -5 16 9 14 42
11 48 -5z m103 3 c8 -13 -16 -21 -30 -10 -9 8 -15 2 -25 -24 -7 -19 -17 -35
-22 -35 -12 0 -11 6 6 40 14 27 14 29 -8 33 -12 2 0 4 26 4 26 0 50 -4 53 -8z
m-1725 -21 c0 -10 2 -10 6 0 2 6 18 12 34 12 27 0 29 -3 29 -35 0 -19 -4 -35
-10 -35 -5 0 -10 14 -10 31 0 17 -4 28 -10 24 -5 -3 -10 -17 -10 -31 0 -13 -4
-24 -10 -24 -5 0 -10 5 -10 12 0 9 -3 9 -12 0 -7 -7 -18 -12 -25 -12 -17 0
-34 35 -27 54 7 19 54 22 55 4z m199 0 c0 -9 4 -8 10 2 9 13 11 13 20 0 9 -13
11 -13 19 0 19 28 22 2 5 -39 -15 -39 -38 -54 -46 -30 -2 6 -15 12 -28 13 -21
1 -25 6 -27 34 -1 28 2 32 23 32 13 0 24 -6 24 -12z m1220 -102 c0 -3 -4 -8
-10 -11 -5 -3 -10 -1 -10 4 0 6 5 11 10 11 6 0 10 -2 10 -4z m-60 -26 c0 -5
-5 -10 -11 -10 -5 0 -7 5 -4 10 3 6 8 10 11 10 2 0 4 -4 4 -10z m-24 -415 c10
-8 28 -15 40 -15 11 0 39 -9 61 -20 57 -27 69 -64 33 -100 -17 -17 -33 -20
-104 -20 -55 0 -87 4 -94 13 -16 19 -9 136 8 147 21 13 33 12 56 -5z m-1422
-64 c9 -7 16 -24 16 -38 0 -14 4 -21 10 -18 6 3 10 18 10 33 1 26 1 26 15 8 8
-11 15 -15 15 -9 0 19 29 23 45 7 8 -9 15 -11 15 -6 0 16 31 23 45 12 14 -11
55 6 55 22 0 5 5 8 10 8 6 0 10 -21 10 -46 l0 -47 -33 6 c-19 3 -40 2 -47 -3
-18 -11 -42 0 -36 16 3 8 1 14 -4 14 -6 0 -10 -6 -10 -14 0 -21 -27 -27 -45
-10 -8 9 -15 11 -15 6 0 -11 -30 -21 -47 -15 -7 3 -13 20 -13 39 0 24 -5 34
-15 34 -10 0 -15 -11 -15 -35 0 -19 -4 -35 -10 -35 -5 0 -10 16 -10 35 0 25
-4 35 -16 35 -8 0 -13 4 -10 9 8 13 61 8 80 -8z m2174 -8 c2 -11 -4 -28 -12
-36 -15 -14 -14 -16 6 -20 17 -3 14 -5 -10 -6 -29 -1 -32 1 -22 18 5 11 15 23
20 26 18 11 10 27 -10 22 -22 -6 -28 8 -7 16 20 9 32 2 35 -20z m68 15 c4 -6
8 -24 9 -40 3 -30 -21 -53 -42 -40 -11 7 -15 68 -6 85 6 11 31 8 39 -5z m49
-18 c-5 -8 -11 -8 -17 -2 -6 6 -7 16 -3 22 5 8 11 8 17 2 6 -6 7 -16 3 -22z
m175 20 c13 -8 13 -13 -2 -39 -15 -28 -15 -30 0 -34 9 -3 2 -5 -16 -6 l-33 -1
20 29 c26 36 26 44 1 36 -21 -7 -28 10 -7 18 18 8 21 8 37 -3z m66 2 c13 -8
-11 -82 -27 -82 -12 0 -11 6 6 40 15 28 14 30 -5 30 -11 0 -20 5 -20 10 0 12
30 13 46 2z m49 -22 c-5 -8 -11 -8 -17 -2 -6 6 -7 16 -3 22 5 8 11 8 17 2 6
-6 7 -16 3 -22z m-770 9 c9 -13 -15 -21 -30 -9 -10 9 -16 4 -25 -25 -6 -19
-16 -35 -21 -35 -12 0 -11 6 6 40 14 28 14 30 -2 30 -10 0 -26 -12 -36 -25
-16 -22 -16 -25 -2 -25 9 0 13 -4 10 -10 -8 -12 -55 -13 -55 -1 0 5 7 14 15
21 21 17 20 41 -2 33 -10 -4 -14 -2 -9 5 7 12 144 14 151 1z m549 -40 c-10
-23 -19 -38 -21 -33 -4 13 26 88 33 81 3 -2 -3 -24 -12 -48z m-2056 29 c19
-19 15 -55 -7 -61 -27 -7 -40 5 -39 33 3 36 24 50 46 28z m52 -5 c0 10 5 17
11 17 7 0 9 -10 5 -25 -18 -72 -44 -101 -42 -47 0 15 -3 38 -8 52 -9 25 -9 25
13 6 19 -17 21 -17 21 -3z m1090 -133 c0 -5 -5 -10 -11 -10 -5 0 -7 5 -4 10 3
6 8 10 11 10 2 0 4 -4 4 -10z m-30 -410 c11 -7 5 -10 -23 -10 -23 0 -36 4 -32
10 8 13 35 13 55 0z m-900 -280 c0 -28 -5 -50 -11 -50 -12 0 -89 43 -89 50 0
7 72 48 88 49 8 1 12 -15 12 -49z m771 40 c22 -12 26 -59 7 -78 -20 -20 -56
-14 -74 13 -15 23 -15 27 0 50 18 27 36 31 67 15z m809 -40 l0 -50 -50 0 -50
0 0 50 0 50 50 0 50 0 0 -50z"/>
<path d="M490 6655 c0 -8 5 -15 10 -15 6 0 10 7 10 15 0 8 -4 15 -10 15 -5 0
-10 -7 -10 -15z"/>
<path d="M635 6660 c-3 -5 -1 -10 4 -10 6 0 11 5 11 10 0 6 -2 10 -4 10 -3 0
-8 -4 -11 -10z"/>
<path d="M636 6631 c-4 -5 -2 -12 3 -15 5 -4 12 -2 15 3 4 5 2 12 -3 15 -5 4
-12 2 -15 -3z"/>
<path d="M2947 6642 c-23 -25 -21 -32 8 -32 20 0 25 5 25 25 0 30 -11 32 -33
7z"/>
<path d="M3117 6343 c-3 -5 -1 -17 4 -28 7 -17 8 -17 8 8 1 27 -4 34 -12 20z"/>
<path d="M722 6354 c4 -21 22 -23 26 -1 2 10 -3 17 -13 17 -10 0 -15 -6 -13
-16z"/>
<path d="M960 6335 c0 -24 5 -35 15 -35 10 0 15 11 15 35 0 24 -5 35 -15 35
-10 0 -15 -11 -15 -35z"/>
<path d="M584 5948 c-4 -7 -8 -28 -7 -46 1 -76 58 -67 58 9 0 37 -3 44 -22 47
-11 2 -25 -3 -29 -10z"/>
<path d="M1130 5933 c0 -6 -3 -18 -6 -27 -4 -11 -1 -16 10 -16 9 0 16 6 16 13
0 16 -20 46 -20 30z"/>
<path d="M1540 5911 c0 -28 4 -52 9 -55 17 -11 40 6 46 34 8 36 -9 70 -35 70
-17 0 -20 -7 -20 -49z"/>
<path d="M2317 5953 c-4 -3 -7 -26 -7 -49 0 -35 4 -44 22 -50 38 -12 61 42 38
87 -10 19 -40 26 -53 12z"/>
<path d="M2482 5534 c-24 -17 -30 -70 -12 -105 15 -28 65 -25 85 4 19 30 10
82 -19 102 -25 19 -27 18 -54 -1z"/>
<path d="M2694 5535 c-4 -9 -2 -21 4 -27 15 -15 44 -1 40 19 -4 23 -36 29 -44
8z"/>
<path d="M2877 5354 c-13 -13 -7 -24 14 -24 11 0 19 5 17 12 -5 14 -22 21 -31
12z"/>
<path d="M2985 5299 c-4 -6 -5 -13 -2 -16 7 -7 27 6 27 18 0 12 -17 12 -25 -2z"/>
<path d="M2532 4881 c2 -7 7 -12 11 -12 12 1 9 15 -3 20 -7 2 -11 -2 -8 -8z"/>
<path d="M3065 4890 c-4 -6 -3 -16 3 -22 13 -13 23 4 13 21 -7 10 -10 10 -16
1z"/>
<path d="M710 3650 c0 -19 3 -21 12 -12 9 9 9 15 0 24 -9 9 -12 7 -12 -12z"/>
<path d="M780 3660 c0 -5 4 -10 9 -10 6 0 13 5 16 10 3 6 -1 10 -9 10 -9 0
-16 -4 -16 -10z"/>
<path d="M1420 3651 c0 -12 5 -21 10 -21 6 0 10 6 10 14 0 8 -4 18 -10 21 -5
3 -10 -3 -10 -14z"/>
<path d="M2155 3657 c-4 -10 -5 -21 -1 -24 10 -10 18 4 13 24 -4 17 -4 17 -12
0z"/>
<path d="M2890 3650 c0 -11 5 -20 10 -20 6 0 10 9 10 20 0 11 -4 20 -10 20 -5
0 -10 -9 -10 -20z"/>
<path d="M710 2930 c0 -5 5 -10 10 -10 6 0 10 5 10 10 0 6 -4 10 -10 10 -5 0
-10 -4 -10 -10z"/>
<path d="M830 2352 c0 -34 7 -43 26 -35 8 3 14 18 14 34 0 22 -5 29 -20 29
-15 0 -20 -7 -20 -28z"/>
<path d="M490 2350 c0 -5 5 -10 10 -10 6 0 10 5 10 10 0 6 -4 10 -10 10 -5 0
-10 -4 -10 -10z"/>
<path d="M920 2320 c0 -5 4 -10 9 -10 6 0 13 5 16 10 3 6 -1 10 -9 10 -9 0
-16 -4 -16 -10z"/>
<path d="M710 1940 c0 -11 5 -20 10 -20 6 0 10 9 10 20 0 11 -4 20 -10 20 -5
0 -10 -9 -10 -20z"/>
<path d="M2740 1970 c0 -5 5 -10 10 -10 6 0 10 5 10 10 0 6 -4 10 -10 10 -5 0
-10 -4 -10 -10z"/>
<path d="M2735 1930 c3 -5 10 -10 16 -10 5 0 9 5 9 10 0 6 -7 10 -16 10 -8 0
-12 -4 -9 -10z"/>
<path d="M575 1950 c-4 -6 -3 -16 3 -22 6 -6 12 -6 17 2 4 6 3 16 -3 22 -6 6
-12 6 -17 -2z"/>
<path d="M820 1923 c0 -13 5 -23 10 -23 13 0 13 11 0 30 -8 12 -10 11 -10 -7z"/>
<path d="M686 1316 c10 -8 21 -12 24 -10 5 6 -21 24 -34 24 -6 0 -1 -6 10 -14z"/>
<path d="M734 1319 c-3 -6 -1 -16 5 -22 8 -8 11 -5 11 11 0 24 -5 28 -16 11z"/>
<path d="M2740 1340 c0 -5 5 -10 10 -10 6 0 10 5 10 10 0 6 -4 10 -10 10 -5 0
-10 -4 -10 -10z"/>
<path d="M2736 1312 c-3 -6 -1 -14 5 -17 15 -10 25 3 12 16 -7 7 -13 7 -17 1z"/>
</g>
</svg>
